<?xml version="1.0" encoding="UTF-8"?>
<svg version="1.1" xmlns="http://www.w3.org/2000/svg" width="822" height="390">
<path d="M0 0 C16.5 0 33 0 50 0 C50 3.3 50 6.6 50 10 C53.3 10 56.6 10 60 10 C60 19.9 60 29.8 60 40 C68.25 40 76.5 40 85 40 C85 30.1 85 20.2 85 10 C88.3 10 91.6 10 95 10 C95 6.7 95 3.4 95 0 C111.5 0 128 0 145 0 C145 3.3 145 6.6 145 10 C151.6 10 158.2 10 165 10 C165 6.7 165 3.4 165 0 C201.3 0 237.6 0 275 0 C275 3.3 275 6.6 275 10 C281.6 10 288.2 10 295 10 C295 6.7 295 3.4 295 0 C337.9 0 380.8 0 425 0 C425 3.3 425 6.6 425 10 C428.3 10 431.6 10 435 10 C435 6.7 435 3.4 435 0 C449.85 0 464.7 0 480 0 C480 3.3 480 6.6 480 10 C493.2 10 506.4 10 520 10 C520 6.7 520 3.4 520 0 C534.85 0 549.7 0 565 0 C565 3.3 565 6.6 565 10 C568.3 10 571.6 10 575 10 C575 64.45 575 118.9 575 175 C571.7 175 568.4 175 565 175 C565 178.3 565 181.6 565 185 C550.15 185 535.3 185 520 185 C520 181.7 520 178.4 520 175 C506.8 175 493.6 175 480 175 C480 178.3 480 181.6 480 185 C465.15 185 450.3 185 435 185 C435 181.7 435 178.4 435 175 C431.7 175 428.4 175 425 175 C425 142 425 109 425 75 C413.45 75 401.9 75 390 75 C390 108 390 141 390 175 C386.7 175 383.4 175 380 175 C380 178.3 380 181.6 380 185 C366.8 185 353.6 185 340 185 C340 181.7 340 178.4 340 175 C336.7 175 333.4 175 330 175 C330 142 330 109 330 75 C318.45 75 306.9 75 295 75 C295 108 295 141 295 175 C291.7 175 288.4 175 285 175 C285 178.3 285 181.6 285 185 C268.5 185 252 185 235 185 C235 181.7 235 178.4 235 175 C225.1 175 215.2 175 205 175 C205 178.3 205 181.6 205 185 C188.5 185 172 185 155 185 C155 181.7 155 178.4 155 175 C151.7 175 148.4 175 145 175 C145 178.3 145 181.6 145 185 C128.5 185 112 185 95 185 C95 181.7 95 178.4 95 175 C91.7 175 88.4 175 85 175 C85 163.45 85 151.9 85 140 C76.75 140 68.5 140 60 140 C60 151.55 60 163.1 60 175 C56.7 175 53.4 175 50 175 C50 178.3 50 181.6 50 185 C33.5 185 17 185 0 185 C0 181.7 0 178.4 0 175 C-3.3 175 -6.6 175 -10 175 C-10 120.55 -10 66.1 -10 10 C-6.7 10 -3.4 10 0 10 C0 6.7 0 3.4 0 0 Z " fill="#E72211" transform="translate(17,6)"/>
<path d="M0 0 C36.3 0 72.6 0 110 0 C110 3.3 110 6.6 110 10 C113.3 10 116.6 10 120 10 C120 13.3 120 16.6 120 20 C123.3 20 126.6 20 130 20 C130 16.7 130 13.4 130 10 C133.3 10 136.6 10 140 10 C140 6.7 140 3.4 140 0 C176.3 0 212.6 0 250 0 C250 3.3 250 6.6 250 10 C256.6 10 263.2 10 270 10 C270 6.7 270 3.4 270 0 C312.9 0 355.8 0 400 0 C400 3.3 400 6.6 400 10 C403.3 10 406.6 10 410 10 C410 6.7 410 3.4 410 0 C424.85 0 439.7 0 455 0 C455 3.3 455 6.6 455 10 C468.2 10 481.4 10 495 10 C495 6.7 495 3.4 495 0 C509.85 0 524.7 0 540 0 C540 3.3 540 6.6 540 10 C543.3 10 546.6 10 550 10 C550 64.45 550 118.9 550 175 C546.7 175 543.4 175 540 175 C540 178.3 540 181.6 540 185 C525.15 185 510.3 185 495 185 C495 181.7 495 178.4 495 175 C481.8 175 468.6 175 455 175 C455 178.3 455 181.6 455 185 C440.15 185 425.3 185 410 185 C410 181.7 410 178.4 410 175 C406.7 175 403.4 175 400 175 C400 142 400 109 400 75 C388.45 75 376.9 75 365 75 C365 108 365 141 365 175 C361.7 175 358.4 175 355 175 C355 178.3 355 181.6 355 185 C341.8 185 328.6 185 315 185 C315 181.7 315 178.4 315 175 C311.7 175 308.4 175 305 175 C305 142 305 109 305 75 C293.45 75 281.9 75 270 75 C270 108 270 141 270 175 C266.7 175 263.4 175 260 175 C260 178.3 260 181.6 260 185 C243.5 185 227 185 210 185 C210 181.7 210 178.4 210 175 C200.1 175 190.2 175 180 175 C180 178.3 180 181.6 180 185 C163.5 185 147 185 130 185 C130 181.7 130 178.4 130 175 C126.7 175 123.4 175 120 175 C120 156.85 120 138.7 120 120 C111.75 120 103.5 120 95 120 C95 123.3 95 126.6 95 130 C85.1 130 75.2 130 65 130 C65 144.85 65 159.7 65 175 C61.7 175 58.4 175 55 175 C55 178.3 55 181.6 55 185 C36.85 185 18.7 185 0 185 C0 181.7 0 178.4 0 175 C-3.3 175 -6.6 175 -10 175 C-10 120.55 -10 66.1 -10 10 C-6.7 10 -3.4 10 0 10 C0 6.7 0 3.4 0 0 Z " fill="#000000" transform="translate(32,196)"/>
<path d="M0 0 C14.85 0 29.7 0 45 0 C45 3.3 45 6.6 45 10 C51.6 10 58.2 10 65 10 C65 6.7 65 3.4 65 0 C101.3 0 137.6 0 175 0 C175 3.3 175 6.6 175 10 C178.3 10 181.6 10 185 10 C185 13.3 185 16.6 185 20 C188.3 20 191.6 20 195 20 C195 67.85 195 115.7 195 165 C191.7 165 188.4 165 185 165 C185 168.3 185 171.6 185 175 C181.7 175 178.4 175 175 175 C175 178.3 175 181.6 175 185 C138.7 185 102.4 185 65 185 C65 181.7 65 178.4 65 175 C58.4 175 51.8 175 45 175 C45 178.3 45 181.6 45 185 C30.15 185 15.3 185 0 185 C0 181.7 0 178.4 0 175 C-3.3 175 -6.6 175 -10 175 C-10 138.7 -10 102.4 -10 65 C-13.3 65 -16.6 65 -20 65 C-20 50.15 -20 35.3 -20 20 C-16.7 20 -13.4 20 -10 20 C-10 16.7 -10 13.4 -10 10 C-6.7 10 -3.4 10 0 10 C0 6.7 0 3.4 0 0 Z " fill="#F9A825" transform="translate(622,111)"/>
<path d="M0 0 C36.3 0 72.6 0 110 0 C110 3.3 110 6.6 110 10 C113.3 10 116.6 10 120 10 C120 43 120 76 120 110 C111.75 110 103.5 110 95 110 C95 116.6 95 123.2 95 130 C85.1 130 75.2 130 65 130 C65 144.85 65 159.7 65 175 C61.7 175 58.4 175 55 175 C55 178.3 55 181.6 55 185 C36.85 185 18.7 185 0 185 C0 181.7 0 178.4 0 175 C-3.3 175 -6.6 175 -10 175 C-10 120.55 -10 66.1 -10 10 C-6.7 10 -3.4 10 0 10 C0 6.7 0 3.4 0 0 Z " fill="#F9A825" transform="translate(32,196)"/>
<path d="M0 0 C16.5 0 33 0 50 0 C50 3.3 50 6.6 50 10 C53.3 10 56.6 10 60 10 C60 19.9 60 29.8 60 40 C68.25 40 76.5 40 85 40 C85 30.1 85 20.2 85 10 C88.3 10 91.6 10 95 10 C95 6.7 95 3.4 95 0 C111.5 0 128 0 145 0 C145 51.15 145 102.3 145 155 C128.5 155 112 155 95 155 C95 143.45 95 131.9 95 120 C91.7 120 88.4 120 85 120 C85 123.3 85 126.6 85 130 C76.75 130 68.5 130 60 130 C60 126.7 60 123.4 60 120 C56.7 120 53.4 120 50 120 C50 131.55 50 143.1 50 155 C33.5 155 17 155 0 155 C0 103.85 0 52.7 0 0 Z " fill="#F9A825" transform="translate(17,6)"/>
<path d="M0 0 C36.3 0 72.6 0 110 0 C110 6.6 110 13.2 110 20 C113.3 20 116.6 20 120 20 C120 64.55 120 109.1 120 155 C103.5 155 87 155 70 155 C70 145.1 70 135.2 70 125 C60.1 125 50.2 125 40 125 C40 134.9 40 144.8 40 155 C23.5 155 7 155 -10 155 C-10 107.15 -10 59.3 -10 10 C-6.7 10 -3.4 10 0 10 C0 6.7 0 3.4 0 0 Z " fill="#F9A825" transform="translate(172,196)"/>
<path d="M0 0 C36.3 0 72.6 0 110 0 C110 6.6 110 13.2 110 20 C113.3 20 116.6 20 120 20 C120 64.55 120 109.1 120 155 C103.5 155 87 155 70 155 C70 145.1 70 135.2 70 125 C60.1 125 50.2 125 40 125 C40 134.9 40 144.8 40 155 C23.5 155 7 155 -10 155 C-10 110.45 -10 65.9 -10 20 C-6.7 20 -3.4 20 0 20 C0 13.4 0 6.8 0 0 Z " fill="#F9A825" transform="translate(182,6)"/>
<path d="M0 0 C14.85 0 29.7 0 45 0 C45 3.3 45 6.6 45 10 C51.6 10 58.2 10 65 10 C65 13.3 65 16.6 65 20 C61.7 20 58.4 20 55 20 C55 59.6 55 99.2 55 140 C58.3 140 61.6 140 65 140 C65 143.3 65 146.6 65 150 C101.3 150 137.6 150 175 150 C175 146.7 175 143.4 175 140 C178.3 140 181.6 140 185 140 C185 100.4 185 60.8 185 20 C188.3 20 191.6 20 195 20 C195 67.85 195 115.7 195 165 C191.7 165 188.4 165 185 165 C185 168.3 185 171.6 185 175 C181.7 175 178.4 175 175 175 C175 178.3 175 181.6 175 185 C138.7 185 102.4 185 65 185 C65 181.7 65 178.4 65 175 C58.4 175 51.8 175 45 175 C45 178.3 45 181.6 45 185 C30.15 185 15.3 185 0 185 C0 181.7 0 178.4 0 175 C-3.3 175 -6.6 175 -10 175 C-10 138.7 -10 102.4 -10 65 C-13.3 65 -16.6 65 -20 65 C-20 50.15 -20 35.3 -20 20 C-16.7 20 -13.4 20 -10 20 C-10 16.7 -10 13.4 -10 10 C-6.7 10 -3.4 10 0 10 C0 6.7 0 3.4 0 0 Z " fill="#E72211" transform="translate(622,111)"/>
<path d="M0 0 C14.85 0 29.7 0 45 0 C45 3.3 45 6.6 45 10 C58.2 10 71.4 10 85 10 C85 6.7 85 3.4 85 0 C99.85 0 114.7 0 130 0 C130 46.2 130 92.4 130 140 C115.15 140 100.3 140 85 140 C85 136.7 85 133.4 85 130 C71.8 130 58.6 130 45 130 C45 133.3 45 136.6 45 140 C30.15 140 15.3 140 0 140 C0 93.8 0 47.6 0 0 Z " fill="#F9A825" transform="translate(442,196)"/>
<path d="M0 0 C14.85 0 29.7 0 45 0 C45 3.3 45 6.6 45 10 C58.2 10 71.4 10 85 10 C85 6.7 85 3.4 85 0 C99.85 0 114.7 0 130 0 C130 46.2 130 92.4 130 140 C115.15 140 100.3 140 85 140 C85 136.7 85 133.4 85 130 C71.8 130 58.6 130 45 130 C45 133.3 45 136.6 45 140 C30.15 140 15.3 140 0 140 C0 93.8 0 47.6 0 0 Z " fill="#F9A825" transform="translate(452,6)"/>
<path d="M0 0 C42.9 0 85.8 0 130 0 C130 19.8 130 39.6 130 60 C115.15 60 100.3 60 85 60 C85 96.3 85 132.6 85 170 C71.8 170 58.6 170 45 170 C45 133.7 45 97.4 45 60 C30.15 60 15.3 60 0 60 C0 40.2 0 20.4 0 0 Z " fill="#F9A825" transform="translate(302,196)"/>
<path d="M0 0 C42.9 0 85.8 0 130 0 C130 19.8 130 39.6 130 60 C115.15 60 100.3 60 85 60 C85 96.3 85 132.6 85 170 C71.8 170 58.6 170 45 170 C45 133.7 45 97.4 45 60 C30.15 60 15.3 60 0 60 C0 40.2 0 20.4 0 0 Z " fill="#F9A825" transform="translate(312,6)"/>
<path d="M0 0 C14.85 0 29.7 0 45 0 C45 51.15 45 102.3 45 155 C30.15 155 15.3 155 0 155 C0 125.3 0 95.6 0 65 C-6.6 65 -13.2 65 -20 65 C-20 50.15 -20 35.3 -20 20 C-16.7 20 -13.4 20 -10 20 C-10 16.7 -10 13.4 -10 10 C-6.7 10 -3.4 10 0 10 C0 6.7 0 3.4 0 0 Z " fill="#F9A825" transform="translate(622,111)"/>
<path d="M0 0 C3.3 0 6.6 0 10 0 C10 54.45 10 108.9 10 165 C6.7 165 3.4 165 0 165 C0 168.3 0 171.6 0 175 C-14.85 175 -29.7 175 -45 175 C-45 171.7 -45 168.4 -45 165 C-58.2 165 -71.4 165 -85 165 C-85 168.3 -85 171.6 -85 175 C-99.85 175 -114.7 175 -130 175 C-130 160.15 -130 145.3 -130 130 C-115.15 130 -100.3 130 -85 130 C-85 126.7 -85 123.4 -85 120 C-71.8 120 -58.6 120 -45 120 C-45 123.3 -45 126.6 -45 130 C-30.15 130 -15.3 130 0 130 C0 87.1 0 44.2 0 0 Z " fill="#E72211" transform="translate(572,206)"/>
<path d="M0 0 C3.3 0 6.6 0 10 0 C10 54.45 10 108.9 10 165 C6.7 165 3.4 165 0 165 C0 168.3 0 171.6 0 175 C-14.85 175 -29.7 175 -45 175 C-45 171.7 -45 168.4 -45 165 C-58.2 165 -71.4 165 -85 165 C-85 168.3 -85 171.6 -85 175 C-99.85 175 -114.7 175 -130 175 C-130 160.15 -130 145.3 -130 130 C-115.15 130 -100.3 130 -85 130 C-85 126.7 -85 123.4 -85 120 C-71.8 120 -58.6 120 -45 120 C-45 123.3 -45 126.6 -45 130 C-30.15 130 -15.3 130 0 130 C0 87.1 0 44.2 0 0 Z " fill="#E72211" transform="translate(582,16)"/>
<path d="M0 0 C6.6 0 13.2 0 20 0 C20 16.5 20 33 20 50 C34.85 50 49.7 50 65 50 C65 86.3 65 122.6 65 160 C78.2 160 91.4 160 105 160 C105 123.7 105 87.4 105 50 C119.85 50 134.7 50 150 50 C150 33.5 150 17 150 0 C153.3 0 156.6 0 160 0 C160 54.45 160 108.9 160 165 C156.7 165 153.4 165 150 165 C150 132 150 99 150 65 C138.45 65 126.9 65 115 65 C115 98 115 131 115 165 C111.7 165 108.4 165 105 165 C105 168.3 105 171.6 105 175 C91.8 175 78.6 175 65 175 C65 171.7 65 168.4 65 165 C61.7 165 58.4 165 55 165 C55 132 55 99 55 65 C43.45 65 31.9 65 20 65 C20 98 20 131 20 165 C16.7 165 13.4 165 10 165 C10 113.85 10 62.7 10 10 C6.7 10 3.4 10 0 10 C0 6.7 0 3.4 0 0 Z " fill="#000000" transform="translate(292,16)"/>
<path d="M0 0 C3.3 0 6.6 0 10 0 C10 44.55 10 89.1 10 135 C26.5 135 43 135 60 135 C60 125.1 60 115.2 60 105 C69.9 105 79.8 105 90 105 C90 114.9 90 124.8 90 135 C106.5 135 123 135 140 135 C140 144.9 140 154.8 140 165 C123.5 165 107 165 90 165 C90 161.7 90 158.4 90 155 C80.1 155 70.2 155 60 155 C60 158.3 60 161.6 60 165 C43.5 165 27 165 10 165 C10 161.7 10 158.4 10 155 C6.7 155 3.4 155 0 155 C0 136.85 0 118.7 0 100 C-8.25 100 -16.5 100 -25 100 C-25 96.7 -25 93.4 -25 90 C-16.75 90 -8.5 90 0 90 C0 60.3 0 30.6 0 0 Z " fill="#E72211" transform="translate(152,216)"/>
<path d="M0 0 C3.3 0 6.6 0 10 0 C10 42.9 10 85.8 10 130 C28.15 130 46.3 130 65 130 C65 123.4 65 116.8 65 110 C78.2 110 91.4 110 105 110 C105 113.3 105 116.6 105 120 C95.1 120 85.2 120 75 120 C75 134.85 75 149.7 75 165 C71.7 165 68.4 165 65 165 C65 168.3 65 171.6 65 175 C46.85 175 28.7 175 10 175 C10 171.7 10 168.4 10 165 C6.7 165 3.4 165 0 165 C0 110.55 0 56.1 0 0 Z " fill="#E72211" transform="translate(22,206)"/>
<path d="M0 0 C9.9 0 19.8 0 30 0 C30 9.9 30 19.8 30 30 C46.5 30 63 30 80 30 C80 39.9 80 49.8 80 60 C63.5 60 47 60 30 60 C30 56.7 30 53.4 30 50 C20.1 50 10.2 50 0 50 C0 53.3 0 56.6 0 60 C-16.5 60 -33 60 -50 60 C-50 50.1 -50 40.2 -50 30 C-33.5 30 -17 30 0 30 C0 20.1 0 10.2 0 0 Z " fill="#E72211" transform="translate(222,131)"/>
<path d="M0 0 C6.6 0 13.2 0 20 0 C20 3.3 20 6.6 20 10 C16.7 10 13.4 10 10 10 C10 57.85 10 105.7 10 155 C13.3 155 16.6 155 20 155 C20 158.3 20 161.6 20 165 C13.4 165 6.8 165 0 165 C0 168.3 0 171.6 0 175 C-14.85 175 -29.7 175 -45 175 C-45 171.7 -45 168.4 -45 165 C-48.3 165 -51.6 165 -55 165 C-55 128.7 -55 92.4 -55 55 C-51.7 55 -48.4 55 -45 55 C-45 84.7 -45 114.4 -45 145 C-30.15 145 -15.3 145 0 145 C0 97.15 0 49.3 0 0 Z " fill="#E72211" transform="translate(667,121)"/>
<path d="M0 0 C13.2 0 26.4 0 40 0 C40 18.15 40 36.3 40 55 C26.8 55 13.6 55 0 55 C0 36.85 0 18.7 0 0 Z " fill="#000000" transform="translate(487,206)"/>
<path d="M0 0 C13.2 0 26.4 0 40 0 C40 18.15 40 36.3 40 55 C26.8 55 13.6 55 0 55 C0 36.85 0 18.7 0 0 Z " fill="#000000" transform="translate(497,16)"/>
<path d="M0 0 C14.85 0 29.7 0 45 0 C45 14.85 45 29.7 45 45 C30.15 45 15.3 45 0 45 C0 30.15 0 15.3 0 0 Z " fill="#E72211" transform="translate(442,336)"/>
<path d="M0 0 C14.85 0 29.7 0 45 0 C45 14.85 45 29.7 45 45 C30.15 45 15.3 45 0 45 C0 30.15 0 15.3 0 0 Z " fill="#E72211" transform="translate(452,146)"/>
<path d="M0 0 C6.6 0 13.2 0 20 0 C20 3.3 20 6.6 20 10 C16.7 10 13.4 10 10 10 C10 57.85 10 105.7 10 155 C13.3 155 16.6 155 20 155 C20 158.3 20 161.6 20 165 C13.4 165 6.8 165 0 165 C0 110.55 0 56.1 0 0 Z " fill="#000000" transform="translate(667,121)"/>
<path d="M0 0 C13.2 0 26.4 0 40 0 C40 14.85 40 29.7 40 45 C26.8 45 13.6 45 0 45 C0 30.15 0 15.3 0 0 Z " fill="#000000" transform="translate(487,326)"/>
<path d="M0 0 C3.3 0 6.6 0 10 0 C10 51.15 10 102.3 10 155 C6.7 155 3.4 155 0 155 C0 136.85 0 118.7 0 100 C-8.25 100 -16.5 100 -25 100 C-25 96.7 -25 93.4 -25 90 C-16.75 90 -8.5 90 0 90 C0 60.3 0 30.6 0 0 Z " fill="#000000" transform="translate(152,216)"/>
<path d="M0 0 C13.2 0 26.4 0 40 0 C40 14.85 40 29.7 40 45 C26.8 45 13.6 45 0 45 C0 30.15 0 15.3 0 0 Z " fill="#000000" transform="translate(497,136)"/>
<path d="M0 0 C6.6 0 13.2 0 20 0 C20 3.3 20 6.6 20 10 C16.7 10 13.4 10 10 10 C10 61.15 10 112.3 10 165 C6.7 165 3.4 165 0 165 C0 110.55 0 56.1 0 0 Z " fill="#000000" transform="translate(162,16)"/>
<path d="M0 0 C3.3 0 6.6 0 10 0 C10 54.45 10 108.9 10 165 C6.7 165 3.4 165 0 165 C0 110.55 0 56.1 0 0 Z " fill="#000000" transform="translate(572,206)"/>
<path d="M0 0 C3.3 0 6.6 0 10 0 C10 54.45 10 108.9 10 165 C6.7 165 3.4 165 0 165 C0 110.55 0 56.1 0 0 Z " fill="#000000" transform="translate(22,206)"/>
<path d="M0 0 C3.3 0 6.6 0 10 0 C10 54.45 10 108.9 10 165 C6.7 165 3.4 165 0 165 C0 110.55 0 56.1 0 0 Z " fill="#000000" transform="translate(582,16)"/>
<path d="M0 0 C3.3 0 6.6 0 10 0 C10 54.45 10 108.9 10 165 C6.7 165 3.4 165 0 165 C0 110.55 0 56.1 0 0 Z " fill="#000000" transform="translate(7,16)"/>
<path d="M0 0 C9.9 0 19.8 0 30 0 C30 16.5 30 33 30 50 C20.1 50 10.2 50 0 50 C0 33.5 0 17 0 0 Z " fill="#000000" transform="translate(727,191)"/>
<path d="M0 0 C16.5 0 33 0 50 0 C50 9.9 50 19.8 50 30 C33.5 30 17 30 0 30 C0 20.1 0 10.2 0 0 Z " fill="#E72211" transform="translate(112,161)"/>
<path d="M0 0 C3.3 0 6.6 0 10 0 C10 47.85 10 95.7 10 145 C6.7 145 3.4 145 0 145 C0 97.15 0 49.3 0 0 Z " fill="#000000" transform="translate(807,131)"/>
<path d="M0 0 C11.55 0 23.1 0 35 0 C35 13.2 35 26.4 35 40 C23.45 40 11.9 40 0 40 C0 26.8 0 13.6 0 0 Z " fill="#E72211" transform="translate(212,236)"/>
<path d="M0 0 C11.55 0 23.1 0 35 0 C35 13.2 35 26.4 35 40 C23.45 40 11.9 40 0 40 C0 26.8 0 13.6 0 0 Z " fill="#E72211" transform="translate(72,236)"/>
<path d="M0 0 C11.55 0 23.1 0 35 0 C35 13.2 35 26.4 35 40 C23.45 40 11.9 40 0 40 C0 26.8 0 13.6 0 0 Z " fill="#E72211" transform="translate(222,46)"/>
<path d="M0 0 C3.3 0 6.6 0 10 0 C10 3.3 10 6.6 10 10 C18.25 10 26.5 10 35 10 C35 6.7 35 3.4 35 0 C38.3 0 41.6 0 45 0 C45 18.15 45 36.3 45 55 C41.7 55 38.4 55 35 55 C35 43.45 35 31.9 35 20 C26.75 20 18.5 20 10 20 C10 31.55 10 43.1 10 55 C6.7 55 3.4 55 0 55 C0 36.85 0 18.7 0 0 Z " fill="#000000" transform="translate(67,126)"/>
<path d="M0 0 C42.9 0 85.8 0 130 0 C130 3.3 130 6.6 130 10 C87.1 10 44.2 10 0 10 C0 6.7 0 3.4 0 0 Z " fill="#000000" transform="translate(302,196)"/>
<path d="M0 0 C42.9 0 85.8 0 130 0 C130 3.3 130 6.6 130 10 C87.1 10 44.2 10 0 10 C0 6.7 0 3.4 0 0 Z " fill="#000000" transform="translate(312,6)"/>
<path d="M0 0 C36.3 0 72.6 0 110 0 C110 3.3 110 6.6 110 10 C73.7 10 37.4 10 0 10 C0 6.7 0 3.4 0 0 Z " fill="#000000" transform="translate(687,286)"/>
<path d="M0 0 C36.3 0 72.6 0 110 0 C110 3.3 110 6.6 110 10 C73.7 10 37.4 10 0 10 C0 6.7 0 3.4 0 0 Z " fill="#000000" transform="translate(172,196)"/>
<path d="M0 0 C36.3 0 72.6 0 110 0 C110 3.3 110 6.6 110 10 C73.7 10 37.4 10 0 10 C0 6.7 0 3.4 0 0 Z " fill="#000000" transform="translate(32,196)"/>
<path d="M0 0 C3.3 0 6.6 0 10 0 C10 36.3 10 72.6 10 110 C6.7 110 3.4 110 0 110 C0 73.7 0 37.4 0 0 Z " fill="#000000" transform="translate(612,176)"/>
<path d="M0 0 C36.3 0 72.6 0 110 0 C110 3.3 110 6.6 110 10 C73.7 10 37.4 10 0 10 C0 6.7 0 3.4 0 0 Z " fill="#000000" transform="translate(687,111)"/>
<path d="M0 0 C36.3 0 72.6 0 110 0 C110 3.3 110 6.6 110 10 C73.7 10 37.4 10 0 10 C0 6.7 0 3.4 0 0 Z " fill="#000000" transform="translate(182,6)"/>
<path d="M0 0 C13.2 0 26.4 0 40 0 C40 8.25 40 16.5 40 25 C26.8 25 13.6 25 0 25 C0 16.75 0 8.5 0 0 Z " fill="#E72211" transform="translate(487,301)"/>
<path d="M0 0 C13.2 0 26.4 0 40 0 C40 8.25 40 16.5 40 25 C26.8 25 13.6 25 0 25 C0 16.75 0 8.5 0 0 Z " fill="#E72211" transform="translate(497,111)"/>
<path d="M0 0 C9.9 0 19.8 0 30 0 C30 9.9 30 19.8 30 30 C20.1 30 10.2 30 0 30 C0 20.1 0 10.2 0 0 Z " fill="#E72211" transform="translate(212,321)"/>
<path d="M0 0 C9.9 0 19.8 0 30 0 C30 9.9 30 19.8 30 30 C20.1 30 10.2 30 0 30 C0 20.1 0 10.2 0 0 Z " fill="#E72211" transform="translate(727,161)"/>
<path d="M0 0 C9.9 0 19.8 0 30 0 C30 9.9 30 19.8 30 30 C20.1 30 10.2 30 0 30 C0 20.1 0 10.2 0 0 Z " fill="#E72211" transform="translate(222,131)"/>
<path d="M0 0 C13.2 0 26.4 0 40 0 C40 3.3 40 6.6 40 10 C30.1 10 20.2 10 10 10 C10 24.85 10 39.7 10 55 C6.7 55 3.4 55 0 55 C0 36.85 0 18.7 0 0 Z " fill="#000000" transform="translate(87,316)"/>
<path d="M0 0 C3.3 0 6.6 0 10 0 C10 4.95 10 9.9 10 15 C18.25 15 26.5 15 35 15 C35 10.05 35 5.1 35 0 C38.3 0 41.6 0 45 0 C45 6.6 45 13.2 45 20 C41.7 20 38.4 20 35 20 C35 23.3 35 26.6 35 30 C26.75 30 18.5 30 10 30 C10 26.7 10 23.4 10 20 C6.7 20 3.4 20 0 20 C0 13.4 0 6.8 0 0 Z " fill="#E72211" transform="translate(67,106)"/>
<path d="M0 0 C13.2 0 26.4 0 40 0 C40 4.95 40 9.9 40 15 C26.8 15 13.6 15 0 15 C0 10.05 0 5.1 0 0 Z " fill="#E72211" transform="translate(347,351)"/>
<path d="M0 0 C9.9 0 19.8 0 30 0 C30 6.6 30 13.2 30 20 C20.1 20 10.2 20 0 20 C0 13.4 0 6.8 0 0 Z " fill="#000000" transform="translate(212,351)"/>
<path d="M0 0 C13.2 0 26.4 0 40 0 C40 4.95 40 9.9 40 15 C26.8 15 13.6 15 0 15 C0 10.05 0 5.1 0 0 Z " fill="#E72211" transform="translate(357,161)"/>
<path d="M0 0 C9.9 0 19.8 0 30 0 C30 6.6 30 13.2 30 20 C20.1 20 10.2 20 0 20 C0 13.4 0 6.8 0 0 Z " fill="#000000" transform="translate(222,161)"/>
<path d="M0 0 C18.15 0 36.3 0 55 0 C55 3.3 55 6.6 55 10 C36.85 10 18.7 10 0 10 C0 6.7 0 3.4 0 0 Z " fill="#000000" transform="translate(32,371)"/>
<path d="M0 0 C11.55 0 23.1 0 35 0 C35 4.95 35 9.9 35 15 C23.45 15 11.9 15 0 15 C0 10.05 0 5.1 0 0 Z " fill="#000000" transform="translate(212,261)"/>
<path d="M0 0 C11.55 0 23.1 0 35 0 C35 4.95 35 9.9 35 15 C23.45 15 11.9 15 0 15 C0 10.05 0 5.1 0 0 Z " fill="#000000" transform="translate(72,261)"/>
<path d="M0 0 C11.55 0 23.1 0 35 0 C35 4.95 35 9.9 35 15 C23.45 15 11.9 15 0 15 C0 10.05 0 5.1 0 0 Z " fill="#000000" transform="translate(222,71)"/>
<path d="M0 0 C16.5 0 33 0 50 0 C50 3.3 50 6.6 50 10 C33.5 10 17 10 0 10 C0 6.7 0 3.4 0 0 Z " fill="#000000" transform="translate(242,371)"/>
<path d="M0 0 C16.5 0 33 0 50 0 C50 3.3 50 6.6 50 10 C33.5 10 17 10 0 10 C0 6.7 0 3.4 0 0 Z " fill="#000000" transform="translate(162,371)"/>
<path d="M0 0 C16.5 0 33 0 50 0 C50 3.3 50 6.6 50 10 C33.5 10 17 10 0 10 C0 6.7 0 3.4 0 0 Z " fill="#000000" transform="translate(252,181)"/>
<path d="M0 0 C16.5 0 33 0 50 0 C50 3.3 50 6.6 50 10 C33.5 10 17 10 0 10 C0 6.7 0 3.4 0 0 Z " fill="#000000" transform="translate(172,181)"/>
<path d="M0 0 C16.5 0 33 0 50 0 C50 3.3 50 6.6 50 10 C33.5 10 17 10 0 10 C0 6.7 0 3.4 0 0 Z " fill="#000000" transform="translate(112,181)"/>
<path d="M0 0 C16.5 0 33 0 50 0 C50 3.3 50 6.6 50 10 C33.5 10 17 10 0 10 C0 6.7 0 3.4 0 0 Z " fill="#000000" transform="translate(17,181)"/>
<path d="M0 0 C16.5 0 33 0 50 0 C50 3.3 50 6.6 50 10 C33.5 10 17 10 0 10 C0 6.7 0 3.4 0 0 Z " fill="#000000" transform="translate(112,6)"/>
<path d="M0 0 C16.5 0 33 0 50 0 C50 3.3 50 6.6 50 10 C33.5 10 17 10 0 10 C0 6.7 0 3.4 0 0 Z " fill="#000000" transform="translate(17,6)"/>
<path d="M0 0 C14.85 0 29.7 0 45 0 C45 3.3 45 6.6 45 10 C30.15 10 15.3 10 0 10 C0 6.7 0 3.4 0 0 Z " fill="#000000" transform="translate(527,371)"/>
<path d="M0 0 C14.85 0 29.7 0 45 0 C45 3.3 45 6.6 45 10 C30.15 10 15.3 10 0 10 C0 6.7 0 3.4 0 0 Z " fill="#000000" transform="translate(442,371)"/>
<path d="M0 0 C14.85 0 29.7 0 45 0 C45 3.3 45 6.6 45 10 C30.15 10 15.3 10 0 10 C0 6.7 0 3.4 0 0 Z " fill="#000000" transform="translate(622,286)"/>
<path d="M0 0 C14.85 0 29.7 0 45 0 C45 3.3 45 6.6 45 10 C30.15 10 15.3 10 0 10 C0 6.7 0 3.4 0 0 Z " fill="#E72211" transform="translate(387,246)"/>
<path d="M0 0 C14.85 0 29.7 0 45 0 C45 3.3 45 6.6 45 10 C30.15 10 15.3 10 0 10 C0 6.7 0 3.4 0 0 Z " fill="#E72211" transform="translate(302,246)"/>
<path d="M0 0 C14.85 0 29.7 0 45 0 C45 3.3 45 6.6 45 10 C30.15 10 15.3 10 0 10 C0 6.7 0 3.4 0 0 Z " fill="#000000" transform="translate(527,196)"/>
<path d="M0 0 C14.85 0 29.7 0 45 0 C45 3.3 45 6.6 45 10 C30.15 10 15.3 10 0 10 C0 6.7 0 3.4 0 0 Z " fill="#000000" transform="translate(442,196)"/>
<path d="M0 0 C14.85 0 29.7 0 45 0 C45 3.3 45 6.6 45 10 C30.15 10 15.3 10 0 10 C0 6.7 0 3.4 0 0 Z " fill="#000000" transform="translate(537,181)"/>
<path d="M0 0 C14.85 0 29.7 0 45 0 C45 3.3 45 6.6 45 10 C30.15 10 15.3 10 0 10 C0 6.7 0 3.4 0 0 Z " fill="#000000" transform="translate(452,181)"/>
<path d="M0 0 C3.3 0 6.6 0 10 0 C10 14.85 10 29.7 10 45 C6.7 45 3.4 45 0 45 C0 30.15 0 15.3 0 0 Z " fill="#000000" transform="translate(602,131)"/>
<path d="M0 0 C14.85 0 29.7 0 45 0 C45 3.3 45 6.6 45 10 C30.15 10 15.3 10 0 10 C0 6.7 0 3.4 0 0 Z " fill="#000000" transform="translate(622,111)"/>
<path d="M0 0 C14.85 0 29.7 0 45 0 C45 3.3 45 6.6 45 10 C30.15 10 15.3 10 0 10 C0 6.7 0 3.4 0 0 Z " fill="#E72211" transform="translate(397,56)"/>
<path d="M0 0 C14.85 0 29.7 0 45 0 C45 3.3 45 6.6 45 10 C30.15 10 15.3 10 0 10 C0 6.7 0 3.4 0 0 Z " fill="#E72211" transform="translate(312,56)"/>
<path d="M0 0 C14.85 0 29.7 0 45 0 C45 3.3 45 6.6 45 10 C30.15 10 15.3 10 0 10 C0 6.7 0 3.4 0 0 Z " fill="#000000" transform="translate(537,6)"/>
<path d="M0 0 C14.85 0 29.7 0 45 0 C45 3.3 45 6.6 45 10 C30.15 10 15.3 10 0 10 C0 6.7 0 3.4 0 0 Z " fill="#000000" transform="translate(452,6)"/>
<path d="M0 0 C13.2 0 26.4 0 40 0 C40 3.3 40 6.6 40 10 C26.8 10 13.6 10 0 10 C0 6.7 0 3.4 0 0 Z " fill="#E72211" transform="translate(87,306)"/>
<path d="M0 0 C3.3 0 6.6 0 10 0 C10 9.9 10 19.8 10 30 C6.7 30 3.4 30 0 30 C0 20.1 0 10.2 0 0 Z " fill="#000000" transform="translate(102,16)"/>
<path d="M0 0 C3.3 0 6.6 0 10 0 C10 9.9 10 19.8 10 30 C6.7 30 3.4 30 0 30 C0 20.1 0 10.2 0 0 Z " fill="#000000" transform="translate(67,16)"/>
<path d="M0 0 C8.25 0 16.5 0 25 0 C25 3.3 25 6.6 25 10 C16.75 10 8.5 10 0 10 C0 6.7 0 3.4 0 0 Z " fill="#E72211" transform="translate(127,296)"/>
<path d="M0 0 C3.3 0 6.6 0 10 0 C10 8.25 10 16.5 10 25 C6.7 25 3.4 25 0 25 C0 16.75 0 8.5 0 0 Z " fill="#E72211" transform="translate(612,151)"/>
<path d="M0 0 C8.25 0 16.5 0 25 0 C25 3.3 25 6.6 25 10 C16.75 10 8.5 10 0 10 C0 6.7 0 3.4 0 0 Z " fill="#000000" transform="translate(77,46)"/>
<path d="M0 0 C11.55 0 23.1 0 35 0 C35 1.65 35 3.3 35 5 C23.45 5 11.9 5 0 5 C0 3.35 0 1.7 0 0 Z " fill="#263238" transform="translate(397,266)"/>
<path d="M0 0 C11.55 0 23.1 0 35 0 C35 1.65 35 3.3 35 5 C23.45 5 11.9 5 0 5 C0 3.35 0 1.7 0 0 Z " fill="#263238" transform="translate(302,266)"/>
<path d="M0 0 C11.55 0 23.1 0 35 0 C35 1.65 35 3.3 35 5 C23.45 5 11.9 5 0 5 C0 3.35 0 1.7 0 0 Z " fill="#263238" transform="translate(407,76)"/>
<path d="M0 0 C11.55 0 23.1 0 35 0 C35 1.65 35 3.3 35 5 C23.45 5 11.9 5 0 5 C0 3.35 0 1.7 0 0 Z " fill="#263238" transform="translate(312,76)"/>
<path d="M0 0 C9.9 0 19.8 0 30 0 C30 1.65 30 3.3 30 5 C20.1 5 10.2 5 0 5 C0 3.35 0 1.7 0 0 Z " fill="#263238" transform="translate(212,366)"/>
<path d="M0 0 C9.9 0 19.8 0 30 0 C30 1.65 30 3.3 30 5 C20.1 5 10.2 5 0 5 C0 3.35 0 1.7 0 0 Z " fill="#263238" transform="translate(222,176)"/>
<path d="M0 0 C8.25 0 16.5 0 25 0 C25 1.65 25 3.3 25 5 C16.75 5 8.5 5 0 5 C0 3.35 0 1.7 0 0 Z " fill="#263238" transform="translate(77,141)"/>
<path d="M0 0 C3.3 0 6.6 0 10 0 C10 3.3 10 6.6 10 10 C6.7 10 3.4 10 0 10 C0 6.7 0 3.4 0 0 Z " fill="#000000" transform="translate(797,276)"/>
<path d="M0 0 C3.3 0 6.6 0 10 0 C10 3.3 10 6.6 10 10 C6.7 10 3.4 10 0 10 C0 6.7 0 3.4 0 0 Z " fill="#000000" transform="translate(162,206)"/>
<path d="M0 0 C3.3 0 6.6 0 10 0 C10 3.3 10 6.6 10 10 C6.7 10 3.4 10 0 10 C0 6.7 0 3.4 0 0 Z " fill="#000000" transform="translate(142,206)"/>
<path d="M0 0 C3.3 0 6.6 0 10 0 C10 3.3 10 6.6 10 10 C6.7 10 3.4 10 0 10 C0 6.7 0 3.4 0 0 Z " fill="#000000" transform="translate(797,121)"/>
<path d="M0 0 C3.3 0 6.6 0 10 0 C10 3.3 10 6.6 10 10 C6.7 10 3.4 10 0 10 C0 6.7 0 3.4 0 0 Z " fill="#000000" transform="translate(612,121)"/>
<path d="M0 0 C3.3 0 6.6 0 10 0 C10 1.65 10 3.3 10 5 C6.7 5 3.4 5 0 5 C0 3.35 0 1.7 0 0 Z " fill="#263238" transform="translate(387,366)"/>
<path d="M0 0 C3.3 0 6.6 0 10 0 C10 1.65 10 3.3 10 5 C6.7 5 3.4 5 0 5 C0 3.35 0 1.7 0 0 Z " fill="#263238" transform="translate(337,366)"/>
<path d="M0 0 C3.3 0 6.6 0 10 0 C10 1.65 10 3.3 10 5 C6.7 5 3.4 5 0 5 C0 3.35 0 1.7 0 0 Z " fill="#263238" transform="translate(292,366)"/>
<path d="M0 0 C3.3 0 6.6 0 10 0 C10 1.65 10 3.3 10 5 C6.7 5 3.4 5 0 5 C0 3.35 0 1.7 0 0 Z " fill="#263238" transform="translate(152,366)"/>
<path d="M0 0 C3.3 0 6.6 0 10 0 C10 1.65 10 3.3 10 5 C6.7 5 3.4 5 0 5 C0 3.35 0 1.7 0 0 Z " fill="#263238" transform="translate(397,176)"/>
<path d="M0 0 C3.3 0 6.6 0 10 0 C10 1.65 10 3.3 10 5 C6.7 5 3.4 5 0 5 C0 3.35 0 1.7 0 0 Z " fill="#263238" transform="translate(347,176)"/>
<path d="M0 0 C3.3 0 6.6 0 10 0 C10 1.65 10 3.3 10 5 C6.7 5 3.4 5 0 5 C0 3.35 0 1.7 0 0 Z " fill="#263238" transform="translate(302,176)"/>
<path d="M0 0 C3.3 0 6.6 0 10 0 C10 1.65 10 3.3 10 5 C6.7 5 3.4 5 0 5 C0 3.35 0 1.7 0 0 Z " fill="#263238" transform="translate(162,176)"/>
<path d="M0 0 C3.3 0 6.6 0 10 0 C10 1.65 10 3.3 10 5 C6.7 5 3.4 5 0 5 C0 3.35 0 1.7 0 0 Z " fill="#263238" transform="translate(102,176)"/>
<path d="M0 0 C3.3 0 6.6 0 10 0 C10 1.65 10 3.3 10 5 C6.7 5 3.4 5 0 5 C0 3.35 0 1.7 0 0 Z " fill="#263238" transform="translate(67,176)"/>
<path d="M0 0 C3.3 0 6.6 0 10 0 C10 1.65 10 3.3 10 5 C6.7 5 3.4 5 0 5 C0 3.35 0 1.7 0 0 Z " fill="#263238" transform="translate(7,176)"/>
</svg>
