<?xml version="1.0" encoding="UTF-8"?>
<svg version="1.1" xmlns="http://www.w3.org/2000/svg" width="708" height="396">
<path d="M0 0 C18.15 0 36.3 0 55 0 C55 4.95 55 9.9 55 15 C59.95 15 64.9 15 70 15 C70 24.9 70 34.8 70 45 C81.55 45 93.1 45 105 45 C105 35.1 105 25.2 105 15 C109.95 15 114.9 15 120 15 C120 10.05 120 5.1 120 0 C136.5 0 153 0 170 0 C170 4.95 170 9.9 170 15 C176.6 15 183.2 15 190 15 C190 19.95 190 24.9 190 30 C193.3 30 196.6 30 200 30 C200 25.05 200 20.1 200 15 C203.3 15 206.6 15 210 15 C210 10.05 210 5.1 210 0 C246.3 0 282.6 0 320 0 C320 4.95 320 9.9 320 15 C326.6 15 333.2 15 340 15 C340 16.65 340 18.3 340 20 C348.25 20 356.5 20 365 20 C365 15.05 365 10.1 365 5 C401.3 5 437.6 5 475 5 C475 9.95 475 14.9 475 20 C486.55 20 498.1 20 510 20 C510 15.05 510 10.1 510 5 C523.2 5 536.4 5 550 5 C550 9.95 550 14.9 550 20 C561.55 20 573.1 20 585 20 C585 15.05 585 10.1 585 5 C604.8 5 624.6 5 645 5 C645 9.95 645 14.9 645 20 C653.25 20 661.5 20 670 20 C670 67.85 670 115.7 670 165 C661.75 165 653.5 165 645 165 C645 168.3 645 171.6 645 175 C625.2 175 605.4 175 585 175 C585 170.05 585 165.1 585 160 C573.45 160 561.9 160 550 160 C550 164.95 550 169.9 550 175 C536.8 175 523.6 175 510 175 C510 171.7 510 168.4 510 165 C503.4 165 496.8 165 490 165 C490 133.65 490 102.3 490 70 C485.05 70 480.1 70 475 70 C475 74.95 475 79.9 475 85 C468.4 85 461.8 85 455 85 C455 111.4 455 137.8 455 165 C450.05 165 445.1 165 440 165 C440 168.3 440 171.6 440 175 C426.8 175 413.6 175 400 175 C400 171.7 400 168.4 400 165 C395.05 165 390.1 165 385 165 C385 138.6 385 112.2 385 85 C378.4 85 371.8 85 365 85 C365 80.05 365 75.1 365 70 C360.05 70 355.1 70 350 70 C350 101.35 350 132.7 350 165 C346.7 165 343.4 165 340 165 C340 168.3 340 171.6 340 175 C320.2 175 300.4 175 280 175 C280 171.7 280 168.4 280 165 C270.1 165 260.2 165 250 165 C250 168.3 250 171.6 250 175 C233.5 175 217 175 200 175 C200 171.7 200 168.4 200 165 C190.1 165 180.2 165 170 165 C170 168.3 170 171.6 170 175 C153.5 175 137 175 120 175 C120 171.7 120 168.4 120 165 C115.05 165 110.1 165 105 165 C105 153.45 105 141.9 105 130 C93.45 130 81.9 130 70 130 C70 141.55 70 153.1 70 165 C65.05 165 60.1 165 55 165 C55 168.3 55 171.6 55 175 C36.85 175 18.7 175 0 175 C0 171.7 0 168.4 0 165 C-6.6 165 -13.2 165 -20 165 C-20 115.5 -20 66 -20 15 C-13.4 15 -6.8 15 0 15 C0 10.05 0 5.1 0 0 Z " fill="#000000" transform="translate(32,21)"/>
<path d="M0 0 C36.3 0 72.6 0 110 0 C110 6.6 110 13.2 110 20 C118.25 20 126.5 20 135 20 C135 24.95 135 29.9 135 35 C139.95 35 144.9 35 150 35 C150 33.35 150 31.7 150 30 C153.3 30 156.6 30 160 30 C160 26.7 160 23.4 160 20 C164.95 20 169.9 20 175 20 C175 13.4 175 6.8 175 0 C209.65 0 244.3 0 280 0 C280 6.6 280 13.2 280 20 C286.6 20 293.2 20 300 20 C300 23.3 300 26.6 300 30 C301.65 30 303.3 30 305 30 C305 28.35 305 26.7 305 25 C313.25 25 321.5 25 330 25 C330 20.05 330 15.1 330 10 C369.6 10 409.2 10 450 10 C450 14.95 450 19.9 450 25 C456.6 25 463.2 25 470 25 C470 20.05 470 15.1 470 10 C483.2 10 496.4 10 510 10 C510 14.95 510 19.9 510 25 C523.2 25 536.4 25 550 25 C550 20.05 550 15.1 550 10 C568.15 10 586.3 10 605 10 C605 14.95 605 19.9 605 25 C613.25 25 621.5 25 630 25 C630 71.2 630 117.4 630 165 C621.75 165 613.5 165 605 165 C605 169.95 605 174.9 605 180 C586.85 180 568.7 180 550 180 C550 173.4 550 166.8 550 160 C536.8 160 523.6 160 510 160 C510 166.6 510 173.2 510 180 C496.8 180 483.6 180 470 180 C470 175.05 470 170.1 470 165 C463.4 165 456.8 165 450 165 C450 135.3 450 105.6 450 75 C448.35 75 446.7 75 445 75 C445 79.95 445 84.9 445 90 C436.75 90 428.5 90 420 90 C420 114.75 420 139.5 420 165 C415.05 165 410.1 165 405 165 C405 169.95 405 174.9 405 180 C391.8 180 378.6 180 365 180 C365 175.05 365 170.1 365 165 C360.05 165 355.1 165 350 165 C350 140.25 350 115.5 350 90 C343.4 90 336.8 90 330 90 C330 85.05 330 80.1 330 75 C325.05 75 320.1 75 315 75 C315 104.7 315 134.4 315 165 C310.05 165 305.1 165 300 165 C300 169.95 300 174.9 300 180 C281.85 180 263.7 180 245 180 C245 175.05 245 170.1 245 165 C233.45 165 221.9 165 210 165 C210 169.95 210 174.9 210 180 C193.5 180 177 180 160 180 C160 175.05 160 170.1 160 165 C156.7 165 153.4 165 150 165 C150 145.2 150 125.4 150 105 C145.05 105 140.1 105 135 105 C135 113.25 135 121.5 135 130 C126.75 130 118.5 130 110 130 C110 134.95 110 139.9 110 145 C91.85 145 73.7 145 55 145 C55 149.95 55 154.9 55 160 C48.4 160 41.8 160 35 160 C35 166.6 35 173.2 35 180 C23.45 180 11.9 180 0 180 C0 173.4 0 166.8 0 160 C-6.6 160 -13.2 160 -20 160 C-20 113.8 -20 67.6 -20 20 C-13.4 20 -6.8 20 0 20 C0 13.4 0 6.8 0 0 Z " fill="#F9A825" transform="translate(57,201)"/>
<path d="M0 0 C13.2 0 26.4 0 40 0 C40 4.95 40 9.9 40 15 C51.55 15 63.1 15 75 15 C75 10.05 75 5.1 75 0 C94.8 0 114.6 0 135 0 C135 4.95 135 9.9 135 15 C143.25 15 151.5 15 160 15 C160 62.85 160 110.7 160 160 C151.75 160 143.5 160 135 160 C135 163.3 135 166.6 135 170 C115.2 170 95.4 170 75 170 C75 165.05 75 160.1 75 155 C50.25 155 25.5 155 0 155 C0 103.85 0 52.7 0 0 Z " fill="#F9A825" transform="translate(542,26)"/>
<path d="M0 0 C18.15 0 36.3 0 55 0 C55 4.95 55 9.9 55 15 C59.95 15 64.9 15 70 15 C70 24.9 70 34.8 70 45 C81.55 45 93.1 45 105 45 C105 35.1 105 25.2 105 15 C109.95 15 114.9 15 120 15 C120 10.05 120 5.1 120 0 C136.5 0 153 0 170 0 C170 47.85 170 95.7 170 145 C153.5 145 137 145 120 145 C120 133.45 120 121.9 120 110 C115.05 110 110.1 110 105 110 C105 113.3 105 116.6 105 120 C93.45 120 81.9 120 70 120 C70 116.7 70 113.4 70 110 C65.05 110 60.1 110 55 110 C55 121.55 55 133.1 55 145 C36.85 145 18.7 145 0 145 C0 97.15 0 49.3 0 0 Z " fill="#F9A825" transform="translate(32,21)"/>
<path d="M0 0 C36.3 0 72.6 0 110 0 C110 4.95 110 9.9 110 15 C121.55 15 133.1 15 145 15 C145 61.2 145 107.4 145 155 C158.2 155 171.4 155 185 155 C185 159.95 185 164.9 185 170 C171.8 170 158.6 170 145 170 C145 166.7 145 163.4 145 160 C138.4 160 131.8 160 125 160 C125 128.65 125 97.3 125 65 C120.05 65 115.1 65 110 65 C110 69.95 110 74.9 110 80 C103.4 80 96.8 80 90 80 C90 106.4 90 132.8 90 160 C85.05 160 80.1 160 75 160 C75 163.3 75 166.6 75 170 C61.8 170 48.6 170 35 170 C35 166.7 35 163.4 35 160 C30.05 160 25.1 160 20 160 C20 133.6 20 107.2 20 80 C13.4 80 6.8 80 0 80 C0 53.6 0 27.2 0 0 Z " fill="#F9A825" transform="translate(397,26)"/>
<path d="M0 0 C34.65 0 69.3 0 105 0 C105 6.6 105 13.2 105 20 C111.6 20 118.2 20 125 20 C125 61.25 125 102.5 125 145 C106.85 145 88.7 145 70 145 C70 136.75 70 128.5 70 120 C58.45 120 46.9 120 35 120 C35 128.25 35 136.5 35 145 C18.5 145 2 145 -15 145 C-15 103.75 -15 62.5 -15 20 C-10.05 20 -5.1 20 0 20 C0 13.4 0 6.8 0 0 Z " fill="#F9A825" transform="translate(232,201)"/>
<path d="M0 0 C36.3 0 72.6 0 110 0 C110 9.9 110 19.8 110 30 C116.6 30 123.2 30 130 30 C130 67.95 130 105.9 130 145 C110.2 145 90.4 145 70 145 C70 135.1 70 125.2 70 115 C60.1 115 50.2 115 40 115 C40 124.9 40 134.8 40 145 C23.5 145 7 145 -10 145 C-10 102.1 -10 59.2 -10 15 C-6.7 15 -3.4 15 0 15 C0 10.05 0 5.1 0 0 Z " fill="#F9A825" transform="translate(242,21)"/>
<path d="M0 0 C37.95 0 75.9 0 115 0 C115 21.45 115 42.9 115 65 C106.75 65 98.5 65 90 65 C90 89.75 90 114.5 90 140 C85.05 140 80.1 140 75 140 C75 144.95 75 149.9 75 155 C61.8 155 48.6 155 35 155 C35 150.05 35 145.1 35 140 C30.05 140 25.1 140 20 140 C20 115.25 20 90.5 20 65 C13.4 65 6.8 65 0 65 C0 43.55 0 22.1 0 0 Z " fill="#F9A825" transform="translate(387,226)"/>
<path d="M0 0 C8.25 0 16.5 0 25 0 C25 16.5 25 33 25 50 C20.05 50 15.1 50 10 50 C10 79.7 10 109.4 10 140 C5.05 140 0.1 140 -5 140 C-5 144.95 -5 149.9 -5 155 C-23.15 155 -41.3 155 -60 155 C-60 150.05 -60 145.1 -60 140 C-71.55 140 -83.1 140 -95 140 C-95 144.95 -95 149.9 -95 155 C-111.5 155 -128 155 -145 155 C-145 150.05 -145 145.1 -145 140 C-148.3 140 -151.6 140 -155 140 C-155 120.2 -155 100.4 -155 80 C-159.95 80 -164.9 80 -170 80 C-170 56.9 -170 33.8 -170 10 C-165.05 10 -160.1 10 -155 10 C-155 8.35 -155 6.7 -155 5 C-151.7 5 -148.4 5 -145 5 C-145 42.95 -145 80.9 -145 120 C-128.5 120 -112 120 -95 120 C-95 111.75 -95 103.5 -95 95 C-83.45 95 -71.9 95 -60 95 C-60 103.25 -60 111.5 -60 120 C-41.85 120 -23.7 120 -5 120 C-5 82.05 -5 44.1 -5 5 C-3.35 5 -1.7 5 0 5 C0 3.35 0 1.7 0 0 Z " fill="#E72211" transform="translate(362,226)"/>
<path d="M0 0 C6.6 0 13.2 0 20 0 C20 1.65 20 3.3 20 5 C28.25 5 36.5 5 45 5 C45 21.5 45 38 45 55 C40.05 55 35.1 55 30 55 C30 86.35 30 117.7 30 150 C26.7 150 23.4 150 20 150 C20 153.3 20 156.6 20 160 C0.2 160 -19.6 160 -40 160 C-40 156.7 -40 153.4 -40 150 C-49.9 150 -59.8 150 -70 150 C-70 153.3 -70 156.6 -70 160 C-86.5 160 -103 160 -120 160 C-120 150.1 -120 140.2 -120 130 C-103.5 130 -87 130 -70 130 C-70 120.1 -70 110.2 -70 100 C-60.1 100 -50.2 100 -40 100 C-40 109.9 -40 119.8 -40 130 C-20.2 130 -0.4 130 20 130 C20 92.05 20 54.1 20 15 C13.4 15 6.8 15 0 15 C0 10.05 0 5.1 0 0 Z " fill="#E72211" transform="translate(352,36)"/>
<path d="M0 0 C39.6 0 79.2 0 120 0 C120 4.95 120 9.9 120 15 C126.6 15 133.2 15 140 15 C140 59.55 140 104.1 140 150 C153.2 150 166.4 150 180 150 C180 156.6 180 163.2 180 170 C166.8 170 153.6 170 140 170 C140 165.05 140 160.1 140 155 C133.4 155 126.8 155 120 155 C120 125.3 120 95.6 120 65 C118.35 65 116.7 65 115 65 C115 48.5 115 32 115 15 C77.05 15 39.1 15 0 15 C0 10.05 0 5.1 0 0 Z " fill="#000000" transform="translate(387,211)"/>
<path d="M0 0 C8.25 0 16.5 0 25 0 C25 46.2 25 92.4 25 140 C16.75 140 8.5 140 0 140 C0 144.95 0 149.9 0 155 C-18.15 155 -36.3 155 -55 155 C-55 148.4 -55 141.8 -55 135 C-36.85 135 -18.7 135 0 135 C0 90.45 0 45.9 0 0 Z " fill="#000000" transform="translate(662,226)"/>
<path d="M0 0 C8.25 0 16.5 0 25 0 C25 47.85 25 95.7 25 145 C16.75 145 8.5 145 0 145 C0 148.3 0 151.6 0 155 C-19.8 155 -39.6 155 -60 155 C-60 150.05 -60 145.1 -60 140 C-40.2 140 -20.4 140 0 140 C0 93.8 0 47.6 0 0 Z " fill="#000000" transform="translate(677,41)"/>
<path d="M0 0 C6.6 0 13.2 0 20 0 C20 4.95 20 9.9 20 15 C23.3 15 26.6 15 30 15 C30 59.55 30 104.1 30 150 C20.1 150 10.2 150 0 150 C0 100.5 0 51 0 0 Z " fill="#000000" transform="translate(202,36)"/>
<path d="M0 0 C11.55 0 23.1 0 35 0 C35 46.2 35 92.4 35 140 C48.2 140 61.4 140 75 140 C75 144.95 75 149.9 75 155 C61.8 155 48.6 155 35 155 C35 151.7 35 148.4 35 145 C28.4 145 21.8 145 15 145 C15 113.65 15 82.3 15 50 C10.05 50 5.1 50 0 50 C0 33.5 0 17 0 0 Z " fill="#000000" transform="translate(507,41)"/>
<path d="M0 0 C11.55 0 23.1 0 35 0 C35 28.05 35 56.1 35 85 C48.2 85 61.4 85 75 85 C75 56.95 75 28.9 75 0 C88.2 0 101.4 0 115 0 C115 4.95 115 9.9 115 15 C106.75 15 98.5 15 90 15 C90 39.75 90 64.5 90 90 C85.05 90 80.1 90 75 90 C75 94.95 75 99.9 75 105 C61.8 105 48.6 105 35 105 C35 100.05 35 95.1 35 90 C30.05 90 25.1 90 20 90 C20 65.25 20 40.5 20 15 C13.4 15 6.8 15 0 15 C0 10.05 0 5.1 0 0 Z " fill="#000000" transform="translate(387,276)"/>
<path d="M0 0 C11.55 0 23.1 0 35 0 C35 29.7 35 59.4 35 90 C48.2 90 61.4 90 75 90 C75 60.3 75 30.6 75 0 C86.55 0 98.1 0 110 0 C110 4.95 110 9.9 110 15 C103.4 15 96.8 15 90 15 C90 41.4 90 67.8 90 95 C85.05 95 80.1 95 75 95 C75 98.3 75 101.6 75 105 C61.8 105 48.6 105 35 105 C35 101.7 35 98.4 35 95 C30.05 95 25.1 95 20 95 C20 68.6 20 42.2 20 15 C13.4 15 6.8 15 0 15 C0 10.05 0 5.1 0 0 Z " fill="#000000" transform="translate(397,91)"/>
<path d="M0 0 C6.6 0 13.2 0 20 0 C20 44.55 20 89.1 20 135 C31.55 135 43.1 135 55 135 C55 131.7 55 128.4 55 125 C61.6 125 68.2 125 75 125 C75 129.95 75 134.9 75 140 C68.4 140 61.8 140 55 140 C55 146.6 55 153.2 55 160 C43.45 160 31.9 160 20 160 C20 153.4 20 146.8 20 140 C13.4 140 6.8 140 0 140 C0 93.8 0 47.6 0 0 Z " fill="#000000" transform="translate(37,221)"/>
<path d="M0 0 C6.6 0 13.2 0 20 0 C20 49.5 20 99 20 150 C13.4 150 6.8 150 0 150 C0 100.5 0 51 0 0 Z " fill="#000000" transform="translate(12,36)"/>
<path d="M0 0 C11.55 0 23.1 0 35 0 C35 8.25 35 16.5 35 25 C54.8 25 74.6 25 95 25 C95 29.95 95 34.9 95 40 C50.45 40 5.9 40 -40 40 C-40 35.05 -40 30.1 -40 25 C-26.8 25 -13.6 25 0 25 C0 16.75 0 8.5 0 0 Z " fill="#E72211" transform="translate(582,141)"/>
<path d="M0 0 C8.25 0 16.5 0 25 0 C25 16.5 25 33 25 50 C20.05 50 15.1 50 10 50 C10 79.7 10 109.4 10 140 C5.05 140 0.1 140 -5 140 C-5 95.45 -5 50.9 -5 5 C-3.35 5 -1.7 5 0 5 C0 3.35 0 1.7 0 0 Z " fill="#000000" transform="translate(362,226)"/>
<path d="M0 0 C6.6 0 13.2 0 20 0 C20 1.65 20 3.3 20 5 C28.25 5 36.5 5 45 5 C45 21.5 45 38 45 55 C40.05 55 35.1 55 30 55 C30 86.35 30 117.7 30 150 C26.7 150 23.4 150 20 150 C20 105.45 20 60.9 20 15 C13.4 15 6.8 15 0 15 C0 10.05 0 5.1 0 0 Z " fill="#000000" transform="translate(352,36)"/>
<path d="M0 0 C13.2 0 26.4 0 40 0 C40 8.25 40 16.5 40 25 C58.15 25 76.3 25 95 25 C95 29.95 95 34.9 95 40 C63.65 40 32.3 40 0 40 C0 26.8 0 13.6 0 0 Z " fill="#E72211" transform="translate(567,321)"/>
<path d="M0 0 C3.3 0 6.6 0 10 0 C10 44.55 10 89.1 10 135 C6.7 135 3.4 135 0 135 C0 115.2 0 95.4 0 75 C-4.95 75 -9.9 75 -15 75 C-15 51.9 -15 28.8 -15 5 C-10.05 5 -5.1 5 0 5 C0 3.35 0 1.7 0 0 Z " fill="#000000" transform="translate(207,231)"/>
<path d="M0 0 C36.3 0 72.6 0 110 0 C110 6.6 110 13.2 110 20 C73.7 20 37.4 20 0 20 C0 13.4 0 6.8 0 0 Z " fill="#000000" transform="translate(57,201)"/>
<path d="M0 0 C34.65 0 69.3 0 105 0 C105 6.6 105 13.2 105 20 C70.35 20 35.7 20 0 20 C0 13.4 0 6.8 0 0 Z " fill="#000000" transform="translate(232,201)"/>
<path d="M0 0 C13.2 0 26.4 0 40 0 C40 16.5 40 33 40 50 C26.8 50 13.6 50 0 50 C0 33.5 0 17 0 0 Z " fill="#E72211" transform="translate(567,226)"/>
<path d="M0 0 C16.5 0 33 0 50 0 C50 11.55 50 23.1 50 35 C33.5 35 17 35 0 35 C0 23.45 0 11.9 0 0 Z " fill="#E72211" transform="translate(92,251)"/>
<path d="M0 0 C8.25 0 16.5 0 25 0 C25 8.25 25 16.5 25 25 C16.75 25 8.5 25 0 25 C0 29.95 0 34.9 0 40 C-18.15 40 -36.3 40 -55 40 C-55 33.4 -55 26.8 -55 20 C-36.85 20 -18.7 20 0 20 C0 13.4 0 6.8 0 0 Z " fill="#000000" transform="translate(167,306)"/>
<path d="M0 0 C18.15 0 36.3 0 55 0 C55 9.9 55 19.8 55 30 C36.85 30 18.7 30 0 30 C0 20.1 0 10.2 0 0 Z " fill="#E72211" transform="translate(32,166)"/>
<path d="M0 0 C36.3 0 72.6 0 110 0 C110 4.95 110 9.9 110 15 C73.7 15 37.4 15 0 15 C0 10.05 0 5.1 0 0 Z " fill="#000000" transform="translate(397,26)"/>
<path d="M0 0 C36.3 0 72.6 0 110 0 C110 4.95 110 9.9 110 15 C73.7 15 37.4 15 0 15 C0 10.05 0 5.1 0 0 Z " fill="#000000" transform="translate(242,21)"/>
<path d="M0 0 C16.5 0 33 0 50 0 C50 9.9 50 19.8 50 30 C33.5 30 17 30 0 30 C0 20.1 0 10.2 0 0 Z " fill="#E72211" transform="translate(152,166)"/>
<path d="M0 0 C11.55 0 23.1 0 35 0 C35 13.2 35 26.4 35 40 C23.45 40 11.9 40 0 40 C0 26.8 0 13.6 0 0 Z " fill="#E72211" transform="translate(267,246)"/>
<path d="M0 0 C11.55 0 23.1 0 35 0 C35 13.2 35 26.4 35 40 C23.45 40 11.9 40 0 40 C0 26.8 0 13.6 0 0 Z " fill="#E72211" transform="translate(282,66)"/>
<path d="M0 0 C4.95 0 9.9 0 15 0 C15 3.3 15 6.6 15 10 C26.55 10 38.1 10 50 10 C50 6.7 50 3.4 50 0 C54.95 0 59.9 0 65 0 C65 6.6 65 13.2 65 20 C60.05 20 55.1 20 50 20 C50 23.3 50 26.6 50 30 C38.45 30 26.9 30 15 30 C15 26.7 15 23.4 15 20 C10.05 20 5.1 20 0 20 C0 13.4 0 6.8 0 0 Z " fill="#E72211" transform="translate(87,111)"/>
<path d="M0 0 C18.15 0 36.3 0 55 0 C55 6.6 55 13.2 55 20 C36.85 20 18.7 20 0 20 C0 13.4 0 6.8 0 0 Z " fill="#E72211" transform="translate(112,306)"/>
<path d="M0 0 C11.55 0 23.1 0 35 0 C35 9.9 35 19.8 35 30 C23.45 30 11.9 30 0 30 C0 20.1 0 10.2 0 0 Z " fill="#000000" transform="translate(582,41)"/>
<path d="M0 0 C13.2 0 26.4 0 40 0 C40 8.25 40 16.5 40 25 C26.8 25 13.6 25 0 25 C0 16.75 0 8.5 0 0 Z " fill="#000000" transform="translate(567,226)"/>
<path d="M0 0 C19.8 0 39.6 0 60 0 C60 4.95 60 9.9 60 15 C40.2 15 20.4 15 0 15 C0 10.05 0 5.1 0 0 Z " fill="#E72211" transform="translate(617,166)"/>
<path d="M0 0 C9.9 0 19.8 0 30 0 C30 9.9 30 19.8 30 30 C20.1 30 10.2 30 0 30 C0 20.1 0 10.2 0 0 Z " fill="#E72211" transform="translate(282,136)"/>
<path d="M0 0 C19.8 0 39.6 0 60 0 C60 4.95 60 9.9 60 15 C40.2 15 20.4 15 0 15 C0 10.05 0 5.1 0 0 Z " fill="#000000" transform="translate(617,26)"/>
<path d="M0 0 C11.55 0 23.1 0 35 0 C35 8.25 35 16.5 35 25 C23.45 25 11.9 25 0 25 C0 16.75 0 8.5 0 0 Z " fill="#E72211" transform="translate(582,71)"/>
<path d="M0 0 C18.15 0 36.3 0 55 0 C55 4.95 55 9.9 55 15 C36.85 15 18.7 15 0 15 C0 10.05 0 5.1 0 0 Z " fill="#000000" transform="translate(302,366)"/>
<path d="M0 0 C18.15 0 36.3 0 55 0 C55 4.95 55 9.9 55 15 C36.85 15 18.7 15 0 15 C0 10.05 0 5.1 0 0 Z " fill="#E72211" transform="translate(607,346)"/>
<path d="M0 0 C18.15 0 36.3 0 55 0 C55 4.95 55 9.9 55 15 C36.85 15 18.7 15 0 15 C0 10.05 0 5.1 0 0 Z " fill="#000000" transform="translate(607,211)"/>
<path d="M0 0 C18.15 0 36.3 0 55 0 C55 4.95 55 9.9 55 15 C36.85 15 18.7 15 0 15 C0 10.05 0 5.1 0 0 Z " fill="#000000" transform="translate(32,21)"/>
<path d="M0 0 C13.2 0 26.4 0 40 0 C40 6.6 40 13.2 40 20 C26.8 20 13.6 20 0 20 C0 13.4 0 6.8 0 0 Z " fill="#E72211" transform="translate(422,341)"/>
<path d="M0 0 C16.5 0 33 0 50 0 C50 4.95 50 9.9 50 15 C33.5 15 17 15 0 15 C0 10.05 0 5.1 0 0 Z " fill="#000000" transform="translate(217,366)"/>
<path d="M0 0 C16.5 0 33 0 50 0 C50 4.95 50 9.9 50 15 C33.5 15 17 15 0 15 C0 10.05 0 5.1 0 0 Z " fill="#000000" transform="translate(152,21)"/>
<path d="M0 0 C11.55 0 23.1 0 35 0 C35 6.6 35 13.2 35 20 C23.45 20 11.9 20 0 20 C0 13.4 0 6.8 0 0 Z " fill="#000000" transform="translate(267,346)"/>
<path d="M0 0 C8.25 0 16.5 0 25 0 C25 8.25 25 16.5 25 25 C16.75 25 8.5 25 0 25 C0 16.75 0 8.5 0 0 Z " fill="#000000" transform="translate(167,306)"/>
<path d="M0 0 C13.2 0 26.4 0 40 0 C40 4.95 40 9.9 40 15 C26.8 15 13.6 15 0 15 C0 10.05 0 5.1 0 0 Z " fill="#000000" transform="translate(567,346)"/>
<path d="M0 0 C13.2 0 26.4 0 40 0 C40 4.95 40 9.9 40 15 C26.8 15 13.6 15 0 15 C0 10.05 0 5.1 0 0 Z " fill="#E72211" transform="translate(527,346)"/>
<path d="M0 0 C13.2 0 26.4 0 40 0 C40 4.95 40 9.9 40 15 C26.8 15 13.6 15 0 15 C0 10.05 0 5.1 0 0 Z " fill="#000000" transform="translate(527,211)"/>
<path d="M0 0 C19.8 0 39.6 0 60 0 C60 3.3 60 6.6 60 10 C40.2 10 20.4 10 0 10 C0 6.7 0 3.4 0 0 Z " fill="#000000" transform="translate(312,186)"/>
<path d="M0 0 C13.2 0 26.4 0 40 0 C40 4.95 40 9.9 40 15 C26.8 15 13.6 15 0 15 C0 10.05 0 5.1 0 0 Z " fill="#E72211" transform="translate(542,166)"/>
<path d="M0 0 C13.2 0 26.4 0 40 0 C40 4.95 40 9.9 40 15 C26.8 15 13.6 15 0 15 C0 10.05 0 5.1 0 0 Z " fill="#E72211" transform="translate(432,166)"/>
<path d="M0 0 C9.9 0 19.8 0 30 0 C30 6.6 30 13.2 30 20 C20.1 20 10.2 20 0 20 C0 13.4 0 6.8 0 0 Z " fill="#000000" transform="translate(282,166)"/>
<path d="M0 0 C13.2 0 26.4 0 40 0 C40 4.95 40 9.9 40 15 C26.8 15 13.6 15 0 15 C0 10.05 0 5.1 0 0 Z " fill="#000000" transform="translate(542,26)"/>
<path d="M0 0 C18.15 0 36.3 0 55 0 C55 3.3 55 6.6 55 10 C36.85 10 18.7 10 0 10 C0 6.7 0 3.4 0 0 Z " fill="#000000" transform="translate(32,186)"/>
<path d="M0 0 C11.55 0 23.1 0 35 0 C35 4.95 35 9.9 35 15 C23.45 15 11.9 15 0 15 C0 10.05 0 5.1 0 0 Z " fill="#000000" transform="translate(267,271)"/>
<path d="M0 0 C11.55 0 23.1 0 35 0 C35 4.95 35 9.9 35 15 C23.45 15 11.9 15 0 15 C0 10.05 0 5.1 0 0 Z " fill="#000000" transform="translate(582,166)"/>
<path d="M0 0 C11.55 0 23.1 0 35 0 C35 4.95 35 9.9 35 15 C23.45 15 11.9 15 0 15 C0 10.05 0 5.1 0 0 Z " fill="#000000" transform="translate(282,91)"/>
<path d="M0 0 C16.5 0 33 0 50 0 C50 3.3 50 6.6 50 10 C33.5 10 17 10 0 10 C0 6.7 0 3.4 0 0 Z " fill="#000000" transform="translate(92,276)"/>
<path d="M0 0 C16.5 0 33 0 50 0 C50 3.3 50 6.6 50 10 C33.5 10 17 10 0 10 C0 6.7 0 3.4 0 0 Z " fill="#000000" transform="translate(232,186)"/>
<path d="M0 0 C16.5 0 33 0 50 0 C50 3.3 50 6.6 50 10 C33.5 10 17 10 0 10 C0 6.7 0 3.4 0 0 Z " fill="#000000" transform="translate(152,186)"/>
<path d="M0 0 C4.95 0 9.9 0 15 0 C15 9.9 15 19.8 15 30 C10.05 30 5.1 30 0 30 C0 20.1 0 10.2 0 0 Z " fill="#000000" transform="translate(137,36)"/>
<path d="M0 0 C4.95 0 9.9 0 15 0 C15 9.9 15 19.8 15 30 C10.05 30 5.1 30 0 30 C0 20.1 0 10.2 0 0 Z " fill="#000000" transform="translate(87,36)"/>
<path d="M0 0 C6.6 0 13.2 0 20 0 C20 6.6 20 13.2 20 20 C13.4 20 6.8 20 0 20 C0 13.4 0 6.8 0 0 Z " fill="#E72211" transform="translate(92,326)"/>
<path d="M0 0 C13.2 0 26.4 0 40 0 C40 3.3 40 6.6 40 10 C26.8 10 13.6 10 0 10 C0 6.7 0 3.4 0 0 Z " fill="#E72211" transform="translate(462,266)"/>
<path d="M0 0 C8.25 0 16.5 0 25 0 C25 4.95 25 9.9 25 15 C16.75 15 8.5 15 0 15 C0 10.05 0 5.1 0 0 Z " fill="#E72211" transform="translate(167,291)"/>
<path d="M0 0 C8.25 0 16.5 0 25 0 C25 4.95 25 9.9 25 15 C16.75 15 8.5 15 0 15 C0 10.05 0 5.1 0 0 Z " fill="#000000" transform="translate(167,221)"/>
<path d="M0 0 C11.55 0 23.1 0 35 0 C35 3.3 35 6.6 35 10 C23.45 10 11.9 10 0 10 C0 6.7 0 3.4 0 0 Z " fill="#E72211" transform="translate(57,346)"/>
<path d="M0 0 C11.55 0 23.1 0 35 0 C35 3.3 35 6.6 35 10 C23.45 10 11.9 10 0 10 C0 6.7 0 3.4 0 0 Z " fill="#E72211" transform="translate(387,266)"/>
<path d="M0 0 C11.55 0 23.1 0 35 0 C35 3.3 35 6.6 35 10 C23.45 10 11.9 10 0 10 C0 6.7 0 3.4 0 0 Z " fill="#E72211" transform="translate(472,81)"/>
<path d="M0 0 C11.55 0 23.1 0 35 0 C35 3.3 35 6.6 35 10 C23.45 10 11.9 10 0 10 C0 6.7 0 3.4 0 0 Z " fill="#E72211" transform="translate(397,81)"/>
<path d="M0 0 C11.55 0 23.1 0 35 0 C35 3.3 35 6.6 35 10 C23.45 10 11.9 10 0 10 C0 6.7 0 3.4 0 0 Z " fill="#000000" transform="translate(102,66)"/>
<path d="M0 0 C6.6 0 13.2 0 20 0 C20 4.95 20 9.9 20 15 C13.4 15 6.8 15 0 15 C0 10.05 0 5.1 0 0 Z " fill="#000000" transform="translate(92,346)"/>
<path d="M0 0 C13.2 0 26.4 0 40 0 C40 1.65 40 3.3 40 5 C26.8 5 13.6 5 0 5 C0 3.35 0 1.7 0 0 Z " fill="#263238" transform="translate(567,356)"/>
<path d="M0 0 C13.2 0 26.4 0 40 0 C40 1.65 40 3.3 40 5 C26.8 5 13.6 5 0 5 C0 3.35 0 1.7 0 0 Z " fill="#263238" transform="translate(567,226)"/>
<path d="M0 0 C6.6 0 13.2 0 20 0 C20 3.3 20 6.6 20 10 C13.4 10 6.8 10 0 10 C0 6.7 0 3.4 0 0 Z " fill="#000000" transform="translate(337,221)"/>
<path d="M0 0 C11.55 0 23.1 0 35 0 C35 1.65 35 3.3 35 5 C23.45 5 11.9 5 0 5 C0 3.35 0 1.7 0 0 Z " fill="#263238" transform="translate(267,361)"/>
<path d="M0 0 C11.55 0 23.1 0 35 0 C35 1.65 35 3.3 35 5 C23.45 5 11.9 5 0 5 C0 3.35 0 1.7 0 0 Z " fill="#263238" transform="translate(582,176)"/>
<path d="M0 0 C11.55 0 23.1 0 35 0 C35 1.65 35 3.3 35 5 C23.45 5 11.9 5 0 5 C0 3.35 0 1.7 0 0 Z " fill="#263238" transform="translate(102,146)"/>
<path d="M0 0 C11.55 0 23.1 0 35 0 C35 1.65 35 3.3 35 5 C23.45 5 11.9 5 0 5 C0 3.35 0 1.7 0 0 Z " fill="#263238" transform="translate(582,41)"/>
<path d="M0 0 C4.95 0 9.9 0 15 0 C15 3.3 15 6.6 15 10 C10.05 10 5.1 10 0 10 C0 6.7 0 3.4 0 0 Z " fill="#000000" transform="translate(217,221)"/>
<path d="M0 0 C9.9 0 19.8 0 30 0 C30 1.65 30 3.3 30 5 C20.1 5 10.2 5 0 5 C0 3.35 0 1.7 0 0 Z " fill="#263238" transform="translate(282,181)"/>
<path d="M0 0 C9.9 0 19.8 0 30 0 C30 1.65 30 3.3 30 5 C20.1 5 10.2 5 0 5 C0 3.35 0 1.7 0 0 Z " fill="#263238" transform="translate(202,181)"/>
<path d="M0 0 C3.3 0 6.6 0 10 0 C10 4.95 10 9.9 10 15 C6.7 15 3.4 15 0 15 C0 10.05 0 5.1 0 0 Z " fill="#000000" transform="translate(232,36)"/>
<path d="M0 0 C8.25 0 16.5 0 25 0 C25 1.65 25 3.3 25 5 C16.75 5 8.5 5 0 5 C0 3.35 0 1.7 0 0 Z " fill="#263238" transform="translate(662,361)"/>
<path d="M0 0 C8.25 0 16.5 0 25 0 C25 1.65 25 3.3 25 5 C16.75 5 8.5 5 0 5 C0 3.35 0 1.7 0 0 Z " fill="#263238" transform="translate(167,326)"/>
<path d="M0 0 C8.25 0 16.5 0 25 0 C25 1.65 25 3.3 25 5 C16.75 5 8.5 5 0 5 C0 3.35 0 1.7 0 0 Z " fill="#263238" transform="translate(477,286)"/>
<path d="M0 0 C8.25 0 16.5 0 25 0 C25 1.65 25 3.3 25 5 C16.75 5 8.5 5 0 5 C0 3.35 0 1.7 0 0 Z " fill="#263238" transform="translate(677,181)"/>
<path d="M0 0 C6.6 0 13.2 0 20 0 C20 1.65 20 3.3 20 5 C13.4 5 6.8 5 0 5 C0 3.35 0 1.7 0 0 Z " fill="#263238" transform="translate(507,361)"/>
<path d="M0 0 C6.6 0 13.2 0 20 0 C20 1.65 20 3.3 20 5 C13.4 5 6.8 5 0 5 C0 3.35 0 1.7 0 0 Z " fill="#263238" transform="translate(92,356)"/>
<path d="M0 0 C6.6 0 13.2 0 20 0 C20 1.65 20 3.3 20 5 C13.4 5 6.8 5 0 5 C0 3.35 0 1.7 0 0 Z " fill="#263238" transform="translate(37,356)"/>
<path d="M0 0 C6.6 0 13.2 0 20 0 C20 1.65 20 3.3 20 5 C13.4 5 6.8 5 0 5 C0 3.35 0 1.7 0 0 Z " fill="#263238" transform="translate(387,286)"/>
<path d="M0 0 C6.6 0 13.2 0 20 0 C20 1.65 20 3.3 20 5 C13.4 5 6.8 5 0 5 C0 3.35 0 1.7 0 0 Z " fill="#263238" transform="translate(522,181)"/>
<path d="M0 0 C6.6 0 13.2 0 20 0 C20 1.65 20 3.3 20 5 C13.4 5 6.8 5 0 5 C0 3.35 0 1.7 0 0 Z " fill="#263238" transform="translate(12,181)"/>
<path d="M0 0 C6.6 0 13.2 0 20 0 C20 1.65 20 3.3 20 5 C13.4 5 6.8 5 0 5 C0 3.35 0 1.7 0 0 Z " fill="#263238" transform="translate(487,101)"/>
<path d="M0 0 C6.6 0 13.2 0 20 0 C20 1.65 20 3.3 20 5 C13.4 5 6.8 5 0 5 C0 3.35 0 1.7 0 0 Z " fill="#263238" transform="translate(397,101)"/>
<path d="M0 0 C4.95 0 9.9 0 15 0 C15 1.65 15 3.3 15 5 C10.05 5 5.1 5 0 5 C0 3.35 0 1.7 0 0 Z " fill="#263238" transform="translate(462,361)"/>
<path d="M0 0 C4.95 0 9.9 0 15 0 C15 1.65 15 3.3 15 5 C10.05 5 5.1 5 0 5 C0 3.35 0 1.7 0 0 Z " fill="#263238" transform="translate(407,361)"/>
<path d="M0 0 C4.95 0 9.9 0 15 0 C15 1.65 15 3.3 15 5 C10.05 5 5.1 5 0 5 C0 3.35 0 1.7 0 0 Z " fill="#263238" transform="translate(357,361)"/>
<path d="M0 0 C4.95 0 9.9 0 15 0 C15 1.65 15 3.3 15 5 C10.05 5 5.1 5 0 5 C0 3.35 0 1.7 0 0 Z " fill="#263238" transform="translate(472,181)"/>
<path d="M0 0 C4.95 0 9.9 0 15 0 C15 1.65 15 3.3 15 5 C10.05 5 5.1 5 0 5 C0 3.35 0 1.7 0 0 Z " fill="#263238" transform="translate(417,181)"/>
<path d="M0 0 C4.95 0 9.9 0 15 0 C15 1.65 15 3.3 15 5 C10.05 5 5.1 5 0 5 C0 3.35 0 1.7 0 0 Z " fill="#263238" transform="translate(137,181)"/>
<path d="M0 0 C4.95 0 9.9 0 15 0 C15 1.65 15 3.3 15 5 C10.05 5 5.1 5 0 5 C0 3.35 0 1.7 0 0 Z " fill="#263238" transform="translate(87,181)"/>
<path d="M0 0 C3.3 0 6.6 0 10 0 C10 1.65 10 3.3 10 5 C6.7 5 3.4 5 0 5 C0 3.35 0 1.7 0 0 Z " fill="#263238" transform="translate(207,361)"/>
<path d="M0 0 C3.3 0 6.6 0 10 0 C10 1.65 10 3.3 10 5 C6.7 5 3.4 5 0 5 C0 3.35 0 1.7 0 0 Z " fill="#263238" transform="translate(372,181)"/>
</svg>
