<?xml version="1.0" encoding="UTF-8"?>
<svg version="1.1" xmlns="http://www.w3.org/2000/svg" width="1600" height="308">
<path d="M0 0 C528 0 1056 0 1600 0 C1600 85.8 1600 171.6 1600 260 C1598.35 260 1596.7 260 1595 260 C1595 258.35 1595 256.7 1595 255 C1593.35 255 1591.7 255 1590 255 C1590 251.7 1590 248.4 1590 245 C1588.35 245 1586.7 245 1585 245 C1585 243.35 1585 241.7 1585 240 C1580.05 240 1575.1 240 1570 240 C1570 241.65 1570 243.3 1570 245 C1571.65 245 1573.3 245 1575 245 C1575 248.3 1575 251.6 1575 255 C1573.35 255 1571.7 255 1570 255 C1570 256.65 1570 258.3 1570 260 C1568.35 260 1566.7 260 1565 260 C1565 258.35 1565 256.7 1565 255 C1561.7 255 1558.4 255 1555 255 C1555 251.7 1555 248.4 1555 245 C1553.35 245 1551.7 245 1550 245 C1550 241.7 1550 238.4 1550 235 C1548.35 235 1546.7 235 1545 235 C1545 236.65 1545 238.3 1545 240 C1541.7 240 1538.4 240 1535 240 C1535 238.35 1535 236.7 1535 235 C1533.35 235 1531.7 235 1530 235 C1530 238.3 1530 241.6 1530 245 C1526.7 245 1523.4 245 1520 245 C1520 243.35 1520 241.7 1520 240 C1518.35 240 1516.7 240 1515 240 C1515 243.3 1515 246.6 1515 250 C1513.35 250 1511.7 250 1510 250 C1510 248.35 1510 246.7 1510 245 C1508.35 245 1506.7 245 1505 245 C1505 241.7 1505 238.4 1505 235 C1506.65 235 1508.3 235 1510 235 C1510 233.35 1510 231.7 1510 230 C1511.65 230 1513.3 230 1515 230 C1515 228.35 1515 226.7 1515 225 C1516.65 225 1518.3 225 1520 225 C1520 220.05 1520 215.1 1520 210 C1518.35 210 1516.7 210 1515 210 C1515 213.3 1515 216.6 1515 220 C1513.35 220 1511.7 220 1510 220 C1510 221.65 1510 223.3 1510 225 C1506.7 225 1503.4 225 1500 225 C1500 221.7 1500 218.4 1500 215 C1495.05 215 1490.1 215 1485 215 C1485 211.7 1485 208.4 1485 205 C1483.35 205 1481.7 205 1480 205 C1480 206.65 1480 208.3 1480 210 C1478.35 210 1476.7 210 1475 210 C1475 211.65 1475 213.3 1475 215 C1476.65 215 1478.3 215 1480 215 C1480 218.3 1480 221.6 1480 225 C1476.7 225 1473.4 225 1470 225 C1470 228.3 1470 231.6 1470 235 C1468.35 235 1466.7 235 1465 235 C1465 239.95 1465 244.9 1465 250 C1463.35 250 1461.7 250 1460 250 C1460 245.05 1460 240.1 1460 235 C1458.35 235 1456.7 235 1455 235 C1455 231.7 1455 228.4 1455 225 C1453.35 225 1451.7 225 1450 225 C1450 223.35 1450 221.7 1450 220 C1451.65 220 1453.3 220 1455 220 C1455 218.35 1455 216.7 1455 215 C1456.65 215 1458.3 215 1460 215 C1460 213.35 1460 211.7 1460 210 C1458.35 210 1456.7 210 1455 210 C1455 208.35 1455 206.7 1455 205 C1451.7 205 1448.4 205 1445 205 C1445 203.35 1445 201.7 1445 200 C1440.05 200 1435.1 200 1430 200 C1430 201.65 1430 203.3 1430 205 C1426.7 205 1423.4 205 1420 205 C1420 206.65 1420 208.3 1420 210 C1421.65 210 1423.3 210 1425 210 C1425 216.6 1425 223.2 1425 230 C1420.05 230 1415.1 230 1410 230 C1410 226.7 1410 223.4 1410 220 C1406.7 220 1403.4 220 1400 220 C1400 218.35 1400 216.7 1400 215 C1396.7 215 1393.4 215 1390 215 C1390 216.65 1390 218.3 1390 220 C1386.7 220 1383.4 220 1380 220 C1380 223.3 1380 226.6 1380 230 C1376.7 230 1373.4 230 1370 230 C1370 233.3 1370 236.6 1370 240 C1368.35 240 1366.7 240 1365 240 C1365 230.1 1365 220.2 1365 210 C1363.35 210 1361.7 210 1360 210 C1360 211.65 1360 213.3 1360 215 C1355.05 215 1350.1 215 1345 215 C1345 216.65 1345 218.3 1345 220 C1343.35 220 1341.7 220 1340 220 C1340 224.95 1340 229.9 1340 235 C1338.35 235 1336.7 235 1335 235 C1335 238.3 1335 241.6 1335 245 C1333.35 245 1331.7 245 1330 245 C1330 241.7 1330 238.4 1330 235 C1328.35 235 1326.7 235 1325 235 C1325 231.7 1325 228.4 1325 225 C1323.35 225 1321.7 225 1320 225 C1320 223.35 1320 221.7 1320 220 C1318.35 220 1316.7 220 1315 220 C1315 221.65 1315 223.3 1315 225 C1313.35 225 1311.7 225 1310 225 C1310 226.65 1310 228.3 1310 230 C1308.35 230 1306.7 230 1305 230 C1305 231.65 1305 233.3 1305 235 C1303.35 235 1301.7 235 1300 235 C1300 236.65 1300 238.3 1300 240 C1298.35 240 1296.7 240 1295 240 C1295 241.65 1295 243.3 1295 245 C1296.65 245 1298.3 245 1300 245 C1300 248.3 1300 251.6 1300 255 C1296.7 255 1293.4 255 1290 255 C1290 251.7 1290 248.4 1290 245 C1288.35 245 1286.7 245 1285 245 C1285 246.65 1285 248.3 1285 250 C1280.05 250 1275.1 250 1270 250 C1270 253.3 1270 256.6 1270 260 C1271.65 260 1273.3 260 1275 260 C1275 261.65 1275 263.3 1275 265 C1273.35 265 1271.7 265 1270 265 C1270 268.3 1270 271.6 1270 275 C1268.35 275 1266.7 275 1265 275 C1265 271.7 1265 268.4 1265 265 C1263.35 265 1261.7 265 1260 265 C1260 261.7 1260 258.4 1260 255 C1258.35 255 1256.7 255 1255 255 C1255 253.35 1255 251.7 1255 250 C1253.35 250 1251.7 250 1250 250 C1250 248.35 1250 246.7 1250 245 C1246.7 245 1243.4 245 1240 245 C1240 243.35 1240 241.7 1240 240 C1238.35 240 1236.7 240 1235 240 C1235 238.35 1235 236.7 1235 235 C1233.35 235 1231.7 235 1230 235 C1230 241.6 1230 248.2 1230 255 C1226.7 255 1223.4 255 1220 255 C1220 251.7 1220 248.4 1220 245 C1218.35 245 1216.7 245 1215 245 C1215 238.4 1215 231.8 1215 225 C1213.35 225 1211.7 225 1210 225 C1210 231.6 1210 238.2 1210 245 C1208.35 245 1206.7 245 1205 245 C1205 248.3 1205 251.6 1205 255 C1203.35 255 1201.7 255 1200 255 C1200 259.95 1200 264.9 1200 270 C1198.35 270 1196.7 270 1195 270 C1195 261.75 1195 253.5 1195 245 C1193.35 245 1191.7 245 1190 245 C1190 246.65 1190 248.3 1190 250 C1186.7 250 1183.4 250 1180 250 C1180 251.65 1180 253.3 1180 255 C1173.4 255 1166.8 255 1160 255 C1160 256.65 1160 258.3 1160 260 C1161.65 260 1163.3 260 1165 260 C1165 261.65 1165 263.3 1165 265 C1163.35 265 1161.7 265 1160 265 C1160 266.65 1160 268.3 1160 270 C1161.65 270 1163.3 270 1165 270 C1165 271.65 1165 273.3 1165 275 C1161.7 275 1158.4 275 1155 275 C1155 273.35 1155 271.7 1155 270 C1153.35 270 1151.7 270 1150 270 C1150 268.35 1150 266.7 1150 265 C1148.35 265 1146.7 265 1145 265 C1145 261.7 1145 258.4 1145 255 C1143.35 255 1141.7 255 1140 255 C1140 253.35 1140 251.7 1140 250 C1138.35 250 1136.7 250 1135 250 C1135 248.35 1135 246.7 1135 245 C1133.35 245 1131.7 245 1130 245 C1130 246.65 1130 248.3 1130 250 C1128.35 250 1126.7 250 1125 250 C1125 248.35 1125 246.7 1125 245 C1123.35 245 1121.7 245 1120 245 C1120 246.65 1120 248.3 1120 250 C1116.7 250 1113.4 250 1110 250 C1110 248.35 1110 246.7 1110 245 C1108.35 245 1106.7 245 1105 245 C1105 248.3 1105 251.6 1105 255 C1103.35 255 1101.7 255 1100 255 C1100 253.35 1100 251.7 1100 250 C1098.35 250 1096.7 250 1095 250 C1095 248.35 1095 246.7 1095 245 C1096.65 245 1098.3 245 1100 245 C1100 241.7 1100 238.4 1100 235 C1101.65 235 1103.3 235 1105 235 C1105 233.35 1105 231.7 1105 230 C1106.65 230 1108.3 230 1110 230 C1110 225.05 1110 220.1 1110 215 C1101.75 215 1093.5 215 1085 215 C1085 213.35 1085 211.7 1085 210 C1081.7 210 1078.4 210 1075 210 C1075 211.65 1075 213.3 1075 215 C1076.65 215 1078.3 215 1080 215 C1080 216.65 1080 218.3 1080 220 C1078.35 220 1076.7 220 1075 220 C1075 221.65 1075 223.3 1075 225 C1076.65 225 1078.3 225 1080 225 C1080 226.65 1080 228.3 1080 230 C1076.7 230 1073.4 230 1070 230 C1070 228.35 1070 226.7 1070 225 C1068.35 225 1066.7 225 1065 225 C1065 223.35 1065 221.7 1065 220 C1063.35 220 1061.7 220 1060 220 C1060 216.7 1060 213.4 1060 210 C1058.35 210 1056.7 210 1055 210 C1055 208.35 1055 206.7 1055 205 C1056.65 205 1058.3 205 1060 205 C1060 201.7 1060 198.4 1060 195 C1056.7 195 1053.4 195 1050 195 C1050 196.65 1050 198.3 1050 200 C1048.35 200 1046.7 200 1045 200 C1045 201.65 1045 203.3 1045 205 C1043.35 205 1041.7 205 1040 205 C1040 203.35 1040 201.7 1040 200 C1038.35 200 1036.7 200 1035 200 C1035 201.65 1035 203.3 1035 205 C1031.7 205 1028.4 205 1025 205 C1025 203.35 1025 201.7 1025 200 C1023.35 200 1021.7 200 1020 200 C1020 203.3 1020 206.6 1020 210 C1018.35 210 1016.7 210 1015 210 C1015 208.35 1015 206.7 1015 205 C1013.35 205 1011.7 205 1010 205 C1010 203.35 1010 201.7 1010 200 C1011.65 200 1013.3 200 1015 200 C1015 196.7 1015 193.4 1015 190 C1013.35 190 1011.7 190 1010 190 C1010 188.35 1010 186.7 1010 185 C1006.7 185 1003.4 185 1000 185 C1000 183.35 1000 181.7 1000 180 C998.35 180 996.7 180 995 180 C995 181.65 995 183.3 995 185 C991.7 185 988.4 185 985 185 C985 178.4 985 171.8 985 165 C983.35 165 981.7 165 980 165 C980 163.35 980 161.7 980 160 C978.35 160 976.7 160 975 160 C975 161.65 975 163.3 975 165 C973.35 165 971.7 165 970 165 C970 166.65 970 168.3 970 170 C968.35 170 966.7 170 965 170 C965 166.7 965 163.4 965 160 C963.35 160 961.7 160 960 160 C960 161.65 960 163.3 960 165 C958.35 165 956.7 165 955 165 C955 168.3 955 171.6 955 175 C953.35 175 951.7 175 950 175 C950 176.65 950 178.3 950 180 C948.35 180 946.7 180 945 180 C945 181.65 945 183.3 945 185 C943.35 185 941.7 185 940 185 C940 186.65 940 188.3 940 190 C941.65 190 943.3 190 945 190 C945 191.65 945 193.3 945 195 C948.3 195 951.6 195 955 195 C955 201.6 955 208.2 955 215 C950.05 215 945.1 215 940 215 C940 211.7 940 208.4 940 205 C936.7 205 933.4 205 930 205 C930 203.35 930 201.7 930 200 C926.7 200 923.4 200 920 200 C920 201.65 920 203.3 920 205 C916.7 205 913.4 205 910 205 C910 208.3 910 211.6 910 215 C906.7 215 903.4 215 900 215 C900 218.3 900 221.6 900 225 C898.35 225 896.7 225 895 225 C895 218.4 895 211.8 895 205 C891.7 205 888.4 205 885 205 C885 203.35 885 201.7 885 200 C880.05 200 875.1 200 870 200 C870 204.95 870 209.9 870 215 C868.35 215 866.7 215 865 215 C865 211.7 865 208.4 865 205 C863.35 205 861.7 205 860 205 C860 200.05 860 195.1 860 190 C861.65 190 863.3 190 865 190 C865 188.35 865 186.7 865 185 C861.7 185 858.4 185 855 185 C855 186.65 855 188.3 855 190 C853.35 190 851.7 190 850 190 C850 188.35 850 186.7 850 185 C848.35 185 846.7 185 845 185 C845 183.35 845 181.7 845 180 C841.7 180 838.4 180 835 180 C835 176.7 835 173.4 835 170 C831.7 170 828.4 170 825 170 C825 168.35 825 166.7 825 165 C823.35 165 821.7 165 820 165 C820 161.7 820 158.4 820 155 C818.35 155 816.7 155 815 155 C815 158.3 815 161.6 815 165 C813.35 165 811.7 165 810 165 C810 166.65 810 168.3 810 170 C808.35 170 806.7 170 805 170 C805 179.9 805 189.8 805 200 C803.35 200 801.7 200 800 200 C800 198.35 800 196.7 800 195 C798.35 195 796.7 195 795 195 C795 191.7 795 188.4 795 185 C793.35 185 791.7 185 790 185 C790 181.7 790 178.4 790 175 C788.35 175 786.7 175 785 175 C785 181.6 785 188.2 785 195 C781.7 195 778.4 195 775 195 C775 201.6 775 208.2 775 215 C770.05 215 765.1 215 760 215 C760 211.7 760 208.4 760 205 C750.1 205 740.2 205 730 205 C730 208.3 730 211.6 730 215 C726.7 215 723.4 215 720 215 C720 218.3 720 221.6 720 225 C718.35 225 716.7 225 715 225 C715 216.75 715 208.5 715 200 C713.35 200 711.7 200 710 200 C710 198.35 710 196.7 710 195 C706.7 195 703.4 195 700 195 C700 204.9 700 214.8 700 225 C698.35 225 696.7 225 695 225 C695 223.35 695 221.7 695 220 C693.35 220 691.7 220 690 220 C690 216.7 690 213.4 690 210 C688.35 210 686.7 210 685 210 C685 206.7 685 203.4 685 200 C683.35 200 681.7 200 680 200 C680 198.35 680 196.7 680 195 C681.65 195 683.3 195 685 195 C685 191.7 685 188.4 685 185 C686.65 185 688.3 185 690 185 C690 181.7 690 178.4 690 175 C686.7 175 683.4 175 680 175 C680 178.3 680 181.6 680 185 C678.35 185 676.7 185 675 185 C675 186.65 675 188.3 675 190 C673.35 190 671.7 190 670 190 C670 185.05 670 180.1 670 175 C666.7 175 663.4 175 660 175 C660 179.95 660 184.9 660 190 C658.35 190 656.7 190 655 190 C655 194.95 655 199.9 655 205 C656.65 205 658.3 205 660 205 C660 214.9 660 224.8 660 235 C658.35 235 656.7 235 655 235 C655 233.35 655 231.7 655 230 C653.35 230 651.7 230 650 230 C650 228.35 650 226.7 650 225 C648.35 225 646.7 225 645 225 C645 221.7 645 218.4 645 215 C638.4 215 631.8 215 625 215 C625 216.65 625 218.3 625 220 C623.35 220 621.7 220 620 220 C620 221.65 620 223.3 620 225 C616.7 225 613.4 225 610 225 C610 228.3 610 231.6 610 235 C608.35 235 606.7 235 605 235 C605 236.65 605 238.3 605 240 C603.35 240 601.7 240 600 240 C600 228.45 600 216.9 600 205 C598.35 205 596.7 205 595 205 C595 203.35 595 201.7 595 200 C593.35 200 591.7 200 590 200 C590 201.65 590 203.3 590 205 C585.05 205 580.1 205 575 205 C575 209.95 575 214.9 575 220 C570.05 220 565.1 220 560 220 C560 216.7 560 213.4 560 210 C556.7 210 553.4 210 550 210 C550 203.4 550 196.8 550 190 C548.35 190 546.7 190 545 190 C545 188.35 545 186.7 545 185 C543.35 185 541.7 185 540 185 C540 186.65 540 188.3 540 190 C538.35 190 536.7 190 535 190 C535 191.65 535 193.3 535 195 C536.65 195 538.3 195 540 195 C540 199.95 540 204.9 540 210 C536.7 210 533.4 210 530 210 C530 213.3 530 216.6 530 220 C526.7 220 523.4 220 520 220 C520 223.3 520 226.6 520 230 C518.35 230 516.7 230 515 230 C515 223.4 515 216.8 515 210 C513.35 210 511.7 210 510 210 C510 211.65 510 213.3 510 215 C500.1 215 490.2 215 480 215 C480 216.65 480 218.3 480 220 C478.35 220 476.7 220 475 220 C475 224.95 475 229.9 475 235 C473.35 235 471.7 235 470 235 C470 236.65 470 238.3 470 240 C471.65 240 473.3 240 475 240 C475 241.65 475 243.3 475 245 C471.7 245 468.4 245 465 245 C465 241.7 465 238.4 465 235 C463.35 235 461.7 235 460 235 C460 231.7 460 228.4 460 225 C458.35 225 456.7 225 455 225 C455 223.35 455 221.7 455 220 C456.65 220 458.3 220 460 220 C460 216.7 460 213.4 460 210 C461.65 210 463.3 210 465 210 C465 208.35 465 206.7 465 205 C463.35 205 461.7 205 460 205 C460 203.35 460 201.7 460 200 C458.35 200 456.7 200 455 200 C455 201.65 455 203.3 455 205 C451.7 205 448.4 205 445 205 C445 203.35 445 201.7 445 200 C441.7 200 438.4 200 435 200 C435 198.35 435 196.7 435 195 C431.7 195 428.4 195 425 195 C425 196.65 425 198.3 425 200 C423.35 200 421.7 200 420 200 C420 195.05 420 190.1 420 185 C423.3 185 426.6 185 430 185 C430 181.7 430 178.4 430 175 C426.7 175 423.4 175 420 175 C420 173.35 420 171.7 420 170 C416.7 170 413.4 170 410 170 C410 171.65 410 173.3 410 175 C411.65 175 413.3 175 415 175 C415 176.65 415 178.3 415 180 C411.7 180 408.4 180 405 180 C405 181.65 405 183.3 405 185 C403.35 185 401.7 185 400 185 C400 181.7 400 178.4 400 175 C398.35 175 396.7 175 395 175 C395 173.35 395 171.7 395 170 C393.35 170 391.7 170 390 170 C390 171.65 390 173.3 390 175 C381.75 175 373.5 175 365 175 C365 179.95 365 184.9 365 190 C363.35 190 361.7 190 360 190 C360 191.65 360 193.3 360 195 C356.7 195 353.4 195 350 195 C350 191.7 350 188.4 350 185 C343.4 185 336.8 185 330 185 C330 188.3 330 191.6 330 195 C326.7 195 323.4 195 320 195 C320 198.3 320 201.6 320 205 C318.35 205 316.7 205 315 205 C315 209.95 315 214.9 315 220 C313.35 220 311.7 220 310 220 C310 215.05 310 210.1 310 205 C308.35 205 306.7 205 305 205 C305 201.7 305 198.4 305 195 C303.35 195 301.7 195 300 195 C300 193.35 300 191.7 300 190 C301.65 190 303.3 190 305 190 C305 188.35 305 186.7 305 185 C306.65 185 308.3 185 310 185 C310 183.35 310 181.7 310 180 C311.65 180 313.3 180 315 180 C315 176.7 315 173.4 315 170 C313.35 170 311.7 170 310 170 C310 171.65 310 173.3 310 175 C306.7 175 303.4 175 300 175 C300 176.65 300 178.3 300 180 C293.4 180 286.8 180 280 180 C280 181.65 280 183.3 280 185 C283.3 185 286.6 185 290 185 C290 191.6 290 198.2 290 205 C285.05 205 280.1 205 275 205 C275 201.7 275 198.4 275 195 C271.7 195 268.4 195 265 195 C265 191.7 265 188.4 265 185 C261.7 185 258.4 185 255 185 C255 188.3 255 191.6 255 195 C251.7 195 248.4 195 245 195 C245 198.3 245 201.6 245 205 C241.7 205 238.4 205 235 205 C235 208.3 235 211.6 235 215 C233.35 215 231.7 215 230 215 C230 210.05 230 205.1 230 200 C226.7 200 223.4 200 220 200 C220 201.65 220 203.3 220 205 C211.75 205 203.5 205 195 205 C195 203.35 195 201.7 195 200 C191.7 200 188.4 200 185 200 C185 201.65 185 203.3 185 205 C186.65 205 188.3 205 190 205 C190 206.65 190 208.3 190 210 C193.3 210 196.6 210 200 210 C200 211.65 200 213.3 200 215 C204.95 215 209.9 215 215 215 C215 219.95 215 224.9 215 230 C208.4 230 201.8 230 195 230 C195 226.7 195 223.4 195 220 C190.05 220 185.1 220 180 220 C180 218.35 180 216.7 180 215 C175.05 215 170.1 215 165 215 C165 216.65 165 218.3 165 220 C161.7 220 158.4 220 155 220 C155 223.3 155 226.6 155 230 C150.05 230 145.1 230 140 230 C140 231.65 140 233.3 140 235 C136.7 235 133.4 235 130 235 C130 228.4 130 221.8 130 215 C131.65 215 133.3 215 135 215 C135 213.35 135 211.7 135 210 C131.7 210 128.4 210 125 210 C125 208.35 125 206.7 125 205 C123.35 205 121.7 205 120 205 C120 203.35 120 201.7 120 200 C118.35 200 116.7 200 115 200 C115 201.65 115 203.3 115 205 C113.35 205 111.7 205 110 205 C110 206.65 110 208.3 110 210 C108.35 210 106.7 210 105 210 C105 211.65 105 213.3 105 215 C103.35 215 101.7 215 100 215 C100 216.65 100 218.3 100 220 C98.35 220 96.7 220 95 220 C95 221.65 95 223.3 95 225 C98.3 225 101.6 225 105 225 C105 231.6 105 238.2 105 245 C100.05 245 95.1 245 90 245 C90 241.7 90 238.4 90 235 C80.1 235 70.2 235 60 235 C60 238.3 60 241.6 60 245 C56.7 245 53.4 245 50 245 C50 248.3 50 251.6 50 255 C48.35 255 46.7 255 45 255 C45 246.75 45 238.5 45 230 C41.7 230 38.4 230 35 230 C35 228.35 35 226.7 35 225 C33.35 225 31.7 225 30 225 C30 228.3 30 231.6 30 235 C26.7 235 23.4 235 20 235 C20 238.3 20 241.6 20 245 C18.35 245 16.7 245 15 245 C15 236.75 15 228.5 15 220 C13.35 220 11.7 220 10 220 C10 221.65 10 223.3 10 225 C8.35 225 6.7 225 5 225 C5 233.25 5 241.5 5 250 C3.35 250 1.7 250 0 250 C0 167.5 0 85 0 0 Z M795 155 C795 159.95 795 164.9 795 170 C793.35 170 791.7 170 790 170 C790 171.65 790 173.3 790 175 C793.3 175 796.6 175 800 175 C800 170.05 800 165.1 800 160 C801.65 160 803.3 160 805 160 C805 158.35 805 156.7 805 155 C801.7 155 798.4 155 795 155 Z M1505 190 C1505 191.65 1505 193.3 1505 195 C1501.7 195 1498.4 195 1495 195 C1495 196.65 1495 198.3 1495 200 C1496.65 200 1498.3 200 1500 200 C1500 201.65 1500 203.3 1500 205 C1501.65 205 1503.3 205 1505 205 C1505 203.35 1505 201.7 1505 200 C1506.65 200 1508.3 200 1510 200 C1510 196.7 1510 193.4 1510 190 C1508.35 190 1506.7 190 1505 190 Z M1510 200 C1510 203.3 1510 206.6 1510 210 C1511.65 210 1513.3 210 1515 210 C1515 206.7 1515 203.4 1515 200 C1513.35 200 1511.7 200 1510 200 Z M1320 210 C1320 213.3 1320 216.6 1320 220 C1321.65 220 1323.3 220 1325 220 C1325 216.7 1325 213.4 1325 210 C1323.35 210 1321.7 210 1320 210 Z M1215 220 C1215 221.65 1215 223.3 1215 225 C1216.65 225 1218.3 225 1220 225 C1220 223.35 1220 221.7 1220 220 C1218.35 220 1216.7 220 1215 220 Z " fill="#285217" transform="translate(0,0)"/>
<path d="M0 0 C1.65 0 3.3 0 5 0 C5 3.3 5 6.6 5 10 C3.35 10 1.7 10 0 10 C0 6.7 0 3.4 0 0 Z " fill="#285217" transform="translate(1270,275)"/>
<path d="M0 0 C3.3 0 6.6 0 10 0 C10 1.65 10 3.3 10 5 C6.7 5 3.4 5 0 5 C0 3.35 0 1.7 0 0 Z " fill="#285217" transform="translate(1570,260)"/>
<path d="M0 0 C1.65 0 3.3 0 5 0 C5 3.3 5 6.6 5 10 C3.35 10 1.7 10 0 10 C0 6.7 0 3.4 0 0 Z " fill="#285217" transform="translate(405,185)"/>
</svg>
